<svg xmlns="http://www.w3.org/2000/svg"
    xmlns:xlink="http://www.w3.org/1999/xlink" version="1.1" x="0px" y="0px" viewBox="0 0 99.7 124.625" style="enable-background:new 0 0 99.7 99.7;" xml:space="preserve">
    <g>
        <rect x="10" y="31.8" width="82.2" height="3.8"/>
        <path d="M78.1,58.1c-4.6,0-8.5-3.9-8.5-8.5c0-2.6-2.2-4.9-4.9-4.9l-0.4,0c-0.3,0-0.5,0.1-0.6,0.1c-0.1,0-0.2,0.1-0.3,0.1   c-0.3,0.1-0.5,0.2-0.6,0.2c-1.7,0.8-2.9,2.6-2.9,4.4c0,4.6-3.9,8.5-8.5,8.5s-8.5-3.9-8.5-8.5c0-2.6-2.3-4.9-4.9-4.9   c-2.6,0-4.9,2.3-4.9,4.9c0,4.6-3.9,8.5-8.5,8.5s-8.5-3.9-8.5-8.5c0-2.6-2.3-4.9-4.9-4.9c-0.3,0-0.7,0-1,0.1v-3.7   c0.3,0,0.7-0.1,1-0.1c4.6,0,8.5,3.9,8.5,8.5c0,2.6,2.3,4.9,4.9,4.9s4.9-2.3,4.9-4.9c0-4.6,3.9-8.5,8.5-8.5s8.5,3.9,8.5,8.5   c0,2.6,2.3,4.9,4.9,4.9s4.9-2.3,4.9-4.9c0-4,2.9-7.6,6.9-8.4l0.3-0.1c0.4-0.1,0.9-0.1,1.3-0.1c4.7,0,8.6,3.9,8.6,8.5   c0.1,2.8,2.3,4.9,4.8,4.9c2.6,0,4.9-2.3,4.9-4.9c0-4.6,3.9-8.5,8.5-8.5c0.3,0,0.5,0,0.8,0.1v3.7c-0.3,0-0.5-0.1-0.8-0.1   c-2.6,0-4.9,2.3-4.9,4.9C86.6,54.2,82.7,58.1,78.1,58.1z"/>
        <path d="M51.2,66.7c-1.3,0-2.4-1.1-2.4-2.4c0-1.3,1.1-2.4,2.4-2.4c1.3,0,2.4,1.1,2.4,2.4C53.6,65.7,52.5,66.7,51.2,66.7z"/>
        <circle cx="18.1" cy="64.4" r="2.4"/>
        <circle cx="67.7" cy="74" r="2.4"/>
        <circle cx="34.7" cy="74" r="2.4"/>
        <circle cx="84.2" cy="64.4" r="2.4"/>
    </g>
</svg>