<svg id="Lager_1" data-name="Lager 1" xmlns="http://www.w3.org/2000/svg" viewBox="0 0 1678.86 327.84"><defs><style>.cls-1,.cls-2{fill:#ec8f5a;}.cls-2{stroke:#fff;stroke-linecap:round;stroke-miterlimit:10;stroke-width:8px;}</style></defs><rect class="cls-1" y="170.48" width="157.36" height="157.36" rx="1.29"/><circle class="cls-1" cx="78.68" cy="78.68" r="78.68"/><path class="cls-1" d="M635,59.47H318.61a5.71,5.71,0,0,0-5.71,5.71V219.87a5.71,5.71,0,0,0,5.71,5.71h76a5.67,5.67,0,0,1,5.68,5.67V381.66a5.65,5.65,0,0,0,5.65,5.65H547.67a5.65,5.65,0,0,0,5.65-5.65V231.25a5.67,5.67,0,0,1,5.67-5.67h76a5.71,5.71,0,0,0,5.71-5.71V65.18A5.71,5.71,0,0,0,635,59.47Z" transform="translate(-120.57 -59.47)"/><path class="cls-1" d="M1793.73,59.47h-153a5.69,5.69,0,0,0-5,2.91l-27.38,49a2.06,2.06,0,0,1-3.61,0l-27-49a5.64,5.64,0,0,0-5-2.93H1419.79a5.69,5.69,0,0,0-5,8.47l112.55,201.12a5.74,5.74,0,0,1,.73,2.81v109.7a5.75,5.75,0,0,0,5.75,5.74h141.5a5.75,5.75,0,0,0,5.75-5.74V270.85a5.78,5.78,0,0,1,.78-2.9l116.8-200A5.69,5.69,0,0,0,1793.73,59.47Z" transform="translate(-120.57 -59.47)"/><path class="cls-1" d="M1372,59.47h-157.6a68.36,68.36,0,0,0,2.18,46.74,88.23,88.23,0,0,1,4.13,55l-2.46,9.85a9.55,9.55,0,0,1-9.25,7.22,9.75,9.75,0,0,1-2.32-.28,9.54,9.54,0,0,1-6.94-11.57l2.46-9.85a69,69,0,0,0-3.23-43,87.41,87.41,0,0,1-4.34-54.08h-153a3.1,3.1,0,0,0-3.1,3.1V384.21a3.1,3.1,0,0,0,3.1,3.1h157.26a69.11,69.11,0,0,0-3.91-39.76,87.38,87.38,0,0,1-1.16-64.53l2.25-6a9.54,9.54,0,0,1,17.87,6.71l-2.26,6a68.4,68.4,0,0,0,.91,50.49,88.32,88.32,0,0,1,5.7,47.09H1372a3.1,3.1,0,0,0,3.1-3.1V62.57A3.1,3.1,0,0,0,1372,59.47Z" transform="translate(-120.57 -59.47)"/><path class="cls-2" d="M839.64,223.39" transform="translate(-120.57 -59.47)"/><path class="cls-1" d="M1002,239.05c-15.07,4.51-33.83,2.41-48.94-5.47a45.49,45.49,0,0,0-38.63-1.16l-7.07,3.12c-7.66,3.4-16.16,6.15-26.81,6.15-10.29,0-22.57-2.57-38-9.61a9.54,9.54,0,0,1,7.9-17.37c25.9,11.79,38.08,8.33,49.24,3.39l7.07-3.13a64.13,64.13,0,0,1,55.18,1.69c10.71,5.59,24.3,7.21,34.64,4.11a22.82,22.82,0,0,0,6.88-3.37,163.9,163.9,0,1,0-.61,21.37C1002.53,238.85,1002.27,239,1002,239.05Z" transform="translate(-120.57 -59.47)"/></svg>