<svg xmlns="http://www.w3.org/2000/svg" xmlns:xlink="http://www.w3.org/1999/xlink" role="presentation" viewBox="-2.5 -5 55 55">
                                            <g fill="none" fill-rule="evenodd">
                                              <circle cx="24.5" cy="24" fill="#0077b5" r="26">
                                              </circle>
                                              <g fill-rule="nonzero" transform="translate(12.5 12)">
                                                <path d="m0 0h24v24h-24z" fill="#000" opacity="0"
                                                  transform="matrix(-1 0 0 -1 24 24)">
                                                </path>
                                                <path
                                                  d="m15.15 8.39996562c1.5479431-.00527818 3.0344522.60523353 4.13183 1.69698368 1.032826 1.0275295 1.6411426 2.4019439 1.7113415 3.8506202l.0068285.2724305v5.88c0 .4588212-.3433367.8374518-.7871059.8929877l-.1128941.0070123h-2.1c-.4588212 0-.8374518-.3433367-.8929877-.7871059l-.0070123-.1128941v-5.81c.0079484-1.0138751-.7440421-1.8732929-1.75-2-.5480814-.0596792-1.0956684.1166548-1.5059361.4849416-.3646825.3273661-.5902448.778911-.6355882 1.262423l-.0084757.1826354v5.88c0 .4588212-.3433367.8374518-.7871059.8929877l-.1128941.0070123h-2.1c-.23869484 0-.46761336-.0948212-.6363961-.2636039-.14065229-.1406523-.22994236-.3230655-.25579871-.5180965l-.00780519-.1182996v-5.88c.00264603-1.54795.62079234-3.0313006 1.71817-4.1230507 1.0973778-1.09175015 2.5838869-1.70226186 4.13183-1.69698368zm-8.55.90003438c.49705627 0 .9.40294373.9.9v9.9c0 .4970563-.40294373.9-.9.9h-2.7c-.49705627 0-.9-.4029437-.9-.9v-9.9c0-.49705627.40294373-.9.9-.9zm-1.35-6.3c1.24264069 0 2.25 1.00735931 2.25 2.25s-1.00735931 2.25-2.25 2.25-2.25-1.00735931-2.25-2.25 1.00735931-2.25 2.25-2.25z"
                                                  fill="#fff"></path>
                                              </g>
                                            </g>
                                          </svg>