<svg xmlns="http://www.w3.org/2000/svg" xmlns:xlink="http://www.w3.org/1999/xlink" role="presentation" viewBox="-2.5 -5 55 55">
                                            <g fill="none" fill-rule="evenodd">
                                              <circle cx="24.5" cy="24" fill="#3b5998" r="26">
                                              </circle>
                                              <g fill-rule="nonzero" transform="translate(12.5 12)">
                                                <path d="m0 0h24v24h-24z" fill="#000" opacity="0"
                                                  transform="matrix(-1 0 0 -1 24 24)">
                                                </path>
                                                <path
                                                  d="m17 3.5c0-.27614237-.2238576-.5-.5-.5h-2.5c-2.6206835-.13054557-4.85472495 1.8800917-5 4.5v2.7h-2.5c-.27614237 0-.5.2238576-.5.5v2.6c0 .2761424.22385763.5.5.5h2.5v6.7c0 .2761424.22385763.5.5.5h3c.2761424 0 .5-.2238576.5-.5v-6.7h2.62c.2287445.0032859.4305439-.1490932.49-.37l.72-2.6c.0403184-.1497279.0088876-.3096887-.0850863-.4330295-.0939739-.1233407-.2398548-.1961015-.3949137-.1969705h-3.35v-2.7c.051542-.51290129.4845219-.90258325 1-.9h2.5c.2761424 0 .5-.22385763.5-.5z"
                                                  fill="#fff"></path>
                                              </g>
                                            </g>
                                          </svg>