<svg xmlns="http://www.w3.org/2000/svg" xmlns:xlink="http://www.w3.org/1999/xlink" role="presentation"
                                            viewBox="-2.5 -5 55 55">
                                            <linearGradient id="insta-gradient" x1="0%" x2="100%" y1="0%" y2="100%">
                                              <stop offset="0" stop-color="#e80026"></stop>
                                              <stop offset="1" stop-color="#bc00ac"></stop>
                                            </linearGradient>
                                            <g fill="none" fill-rule="evenodd" transform="translate(.5)">
                                              <circle cx="24" cy="24" fill="url(#insta-gradient)" r="26">
                                              </circle>
                                              <g fill="#fff" fill-rule="nonzero" transform="translate(14 14)">
                                                <path
                                                  d="m10 1.80436508c2.6692857 0 2.9854365.01023809 4.0396825.05833333.9746826.04448413 1.5039683.20730159 1.8562699.34420635.4342099.16025873.8269834.41579335 1.1494444.74781746.3320241.32246105.5875588.7152345.7478175 1.14944445.1369047.3522619.2997619.8815873.3442063 1.85626984.0480953 1.05416666.0582937 1.37031746.0582937 4.03968249 0 2.6693651-.0101984 2.9854366-.0582937 4.0396826-.0444841.9746825-.2073412 1.5039682-.3442063 1.8562698-.3363143.8718421-1.0254199 1.5609477-1.8972619 1.8972619-.3522619.1369048-.8815873.2997619-1.8562699.3442064-1.0539682.0480952-1.370119.0582936-4.0396825.0582936-2.66956349 0-2.98559524-.0101984-4.03968254-.0582936-.97468254-.0444841-1.50396825-.2073413-1.85626984-.3442064-.43421055-.1602575-.82698426-.4157923-1.14944445-.7478174-.33202306-.3224619-.58755752-.7152351-.74781746-1.1494445-.13690476-.3522619-.2997619-.8815873-.34420634-1.8562698-.04809524-1.054127-.05829366-1.3703175-.05829366-4.0396826 0-2.66936503.01019842-2.98543646.05829366-4.03968249.04448412-.97468254.20730158-1.50396826.34420634-1.85626984.16027662-.43423159.41583907-.8270197.74789683-1.14948413.3224619-.33202307.71523511-.58755752 1.14944444-.74781746.35226191-.13690476.88158731-.29976191 1.85626985-.34420635 1.05416666-.04809524 1.37031746-.05829365 4.03968257-.05829365m0-1.80123016c-2.71500003 0-3.05555559.01150794-4.1216667.06015873-1.0640873.04857143-1.79075397.21753968-2.42662699.46468254-.66703973.25101711-1.27129677.64451547-1.77063492 1.15305556-.50865468.49930683-.90226292 1.10356623-1.15337301 1.77063492-.24694445.6359127-.4159127 1.36257936-.46428572 2.42666666-.0488492 1.06611111-.06035714 1.40666667-.06035714 4.12166667s.01150794 3.0555556.06035714 4.1216667c.04857143 1.0640873.21753969 1.7907539.46468254 2.426627.25101826.6670391.64451647 1.2712959 1.15305556 1.7706349.49933652.508542 1.10359403.9020407 1.77063492 1.1530555.6359127.2471429 1.36257936.4161111 2.42662698.4646826 1.06626984.0486508 1.40670635.0601587 4.12166664.0601587 2.7149603 0 3.0555556-.0115079 4.1216667-.0601587 1.0640873-.0485715 1.790754-.2175397 2.426627-.4646826 1.3428072-.5193465 2.404344-1.5808832 2.9236905-2.9236904.2471428-.6359127.4161111-1.3625794.4646825-2.426627.0486508-1.0662699.0601587-1.4067064.0601587-4.1216667 0-2.71496032-.0115079-3.05555556-.0601587-4.12166667-.0485714-1.0640873-.2175397-1.79075396-.4646825-2.42662698-.2510149-.66704089-.6445135-1.2712984-1.1530556-1.77063492-.4993483-.50864147-1.1036494-.90222327-1.770754-1.15329365-.6359127-.24694445-1.3625793-.4159127-2.4266666-.46428572-1.0661111-.0488492-1.4066667-.06035714-4.1216667-.06035714z">
                                                </path>
                                                <path
                                                  d="m10 4.86646825c-2.8351713 0-5.13353175 2.29836045-5.13353175 5.13353175s2.29836045 5.1335317 5.13353175 5.1335317 5.1335317-2.2983604 5.1335317-5.1335317-2.2983604-5.13353175-5.1335317-5.13353175zm0 8.46579365c-1.84035227 0-3.33222222-1.4919361-3.33222222-3.33228835 0-1.84035227 1.49192286-3.33223545 3.33227512-3.33223545 1.8403523 0 3.3322487 1.49190963 3.3322487 3.3322619 0 1.8403639-1.4919377 3.3322619-3.3323016 3.3322619z">
                                                </path>
                                                <circle cx="15.336349" cy="4.663651" r="1.199603">
                                                </circle>
                                              </g>
                                            </g>
                                          </svg>