<svg height="107" width="107" class="cz" viewBox="0 0 101 99" fill="none">
    <path d="M29.477 9.33C21.34 13.366 14.682 19.711 10.22 27.678c-4.46 7.962-6.391 16.95-5.588 25.989.02.228.21.399.435.399.012 0 .027 0 .04-.003a.438.438 0 00.396-.474c-1.598-17.98 8.192-35.452 24.362-43.475a.437.437 0 10-.39-.786zm-19.28 60.561a.439.439 0 00-.78.4c4.118 8.064 10.519 14.64 18.508 19.01 6.69 3.66 14.082 5.55 21.602 5.55 1.465 0 2.936-.072 4.41-.216a.441.441 0 00.393-.48.442.442 0 00-.48-.394c-17.92 1.76-35.463-7.835-43.653-23.87zm59.485 20.227c16.654-8.266 26.623-26.249 24.808-44.752a.442.442 0 00-.48-.394.44.44 0 00-.394.48c1.781 18.14-7.994 35.776-24.325 43.88a.437.437 0 00.193.83.394.394 0 00.198-.044zm19.901-59.865a.437.437 0 00.392-.634C81.712 12.968 63.727 2.997 45.223 4.815a.441.441 0 00-.394.48c.024.239.24.415.48.393 18.144-1.779 35.776 7.994 43.88 24.323a.445.445 0 00.394.242z" fill="#000"></path>
    <path d="M2.494 55.222c.03 0 .059-.003.088-.005a.878.878 0 00.786-.96c-1.91-19.218 8.476-37.81 25.84-46.261a.876.876 0 10-.769-1.576C10.419 15.192-.357 34.486 1.623 54.43c.046.453.426.79.871.79zm51.919 40.683C35.288 97.93 16.664 87.732 8.068 70.53a.873.873 0 00-1.174-.392.873.873 0 00-.392 1.175c8.168 16.348 25.062 26.598 43.093 26.598 1.66 0 3.333-.088 5.004-.264a.875.875 0 10-.186-1.742zM96.54 43.924a.875.875 0 00-.778.964c2.048 19.341-8.325 38.053-25.81 46.563a.876.876 0 00.765 1.576c18.147-8.833 28.911-28.252 26.785-48.322a.876.876 0 00-.962-.78zM44.743 3.542c19.206-2.036 37.864 8.23 46.431 25.54a.874.874 0 001.172.395.876.876 0 00.397-1.174C83.855 10.34 64.49-.312 44.56 1.798a.878.878 0 00.184 1.745zM100 35.871a.434.434 0 00-.54-.298c-.211.061-.348-.017-.656-.242-.326-.238-.769-.558-1.41-.375-.641.184-.847.693-.996 1.065-.142.352-.215.491-.428.553-.21.06-.347-.02-.656-.243-.325-.235-.768-.56-1.41-.377-.64.184-.846.693-.995 1.065-.142.352-.216.492-.426.553-.213.061-.347-.02-.656-.242-.325-.238-.768-.56-1.41-.377-.64.183-.846.692-.995 1.064-.142.353-.215.492-.426.553-.21.062-.347-.02-.656-.242-.323-.235-.768-.56-1.41-.377a.435.435 0 10.243.837c.21-.061.348.02.656.242.257.189.59.431 1.037.431.115 0 .24-.017.372-.054.641-.183.847-.692.996-1.064.142-.353.216-.492.426-.553.213-.061.347.02.656.242.325.237.768.56 1.41.377.64-.184.846-.693.995-1.065.142-.352.215-.491.426-.553.213-.058.347.02.656.243.325.235.768.558 1.41.377.64-.184.846-.693.995-1.065.142-.352.215-.492.428-.553.21-.061.348.017.656.242.326.235.768.56 1.41.375a.437.437 0 00.298-.539zm-7.745-1.647c-.083.177-.222.475-.278.52-.118.007-.448-.204-.63-.319-.376-.242-.765-.492-1.16-.38-.694.202-.84.764-.936 1.139-.084.325-.118.374-.206.399-.12.034-.223-.032-.487-.26-.281-.242-.705-.61-1.297-.438a.436.436 0 00.24.84c.12-.035.223.031.487.259.23.198.558.482.996.482.095 0 .196-.012.3-.044.59-.169.723-.68.81-1.02.089-.346.138-.453.307-.51.1.025.333.174.474.267.407.262.87.56 1.339.424.423-.12.629-.56.83-.986.088-.189.237-.505.298-.551.105.007.399.186.575.298.396.255.805.517 1.228.397.47-.135.705-.632.91-1.07.072-.154.191-.403.262-.477.172-.039.27.025.529.27.254.242.636.606 1.226.435a.436.436 0 00-.24-.84c-.088.025-.142 0-.384-.23-.279-.266-.702-.667-1.397-.467-.394.113-.592.531-.783.938-.09.195-.262.558-.338.6-.098-.003-.374-.182-.54-.287-.39-.25-.83-.534-1.273-.406-.44.124-.663.6-.862 1.017zm6.583 4.451c-.098.03-.198-.046-.44-.264-.275-.247-.688-.621-1.266-.457-.58.166-.731.702-.832 1.06-.088.312-.137.43-.232.457-.096.024-.198-.044-.438-.264-.274-.25-.688-.622-1.265-.458-.58.166-.732.702-.832 1.06-.088.313-.137.428-.233.455-.095.026-.198-.047-.438-.265-.274-.247-.687-.624-1.265-.457-.58.166-.731.702-.832 1.06-.088.313-.137.428-.232.454-.096.027-.198-.046-.438-.264-.274-.247-.688-.624-1.265-.457a.435.435 0 10.24.836c.095-.026.198.047.438.265.227.205.548.499.98.499a.984.984 0 00.285-.042c.58-.166.731-.702.832-1.057.088-.313.137-.428.232-.457.096-.027.198.046.438.264.274.247.688.624 1.265.457.58-.166.732-.702.832-1.057.088-.313.137-.428.233-.457.095-.027.198.046.438.264.274.25.687.624 1.265.458.58-.167.731-.703.832-1.057.088-.314.137-.431.232-.458.096-.027.198.044.44.264.275.247.688.622 1.268.458a.436.436 0 10-.242-.84zM35.755 5.923a1.1 1.1 0 002.115-.607 1.1 1.1 0 00-2.115.607zm-.562-2.567a.874.874 0 00-.482-1.679.874.874 0 00-.6 1.08.878.878 0 001.082.6zM34.074 6.83a1.1 1.1 0 00-.606-2.113 1.1 1.1 0 00.606 2.114zm.856 1.205a.87.87 0 10.482 1.676.871.871 0 10-.481-1.676zm4.875.475a1.1 1.1 0 10-.754 1.36c.583-.169.92-.778.754-1.36zm-.389-2.575a.871.871 0 101.676-.482.871.871 0 10-1.676.482zm-.48-2.782a1.101 1.101 0 00-.606-2.114 1.1 1.1 0 00.606 2.114zM8.193 67.38a.369.369 0 00.279-.029.358.358 0 00.174-.22l.325-1.145 1.175-.193a.361.361 0 00.298-.421L10.24 64.2l.976-.683a.356.356 0 00.15-.237.356.356 0 00-.064-.274l-.693-.97.582-1.04a.37.37 0 00.032-.278.368.368 0 00-.173-.218l-1.045-.573.075-1.189a.358.358 0 00-.343-.384l-1.188-.061-.448-1.104a.367.367 0 00-.477-.198l-1.099.46-.883-.798a.362.362 0 00-.517.03l-.79.893-1.14-.34a.358.358 0 00-.453.25l-.325 1.144-1.175.194a.362.362 0 00-.298.42l.205 1.175-.976.683a.356.356 0 00-.15.237.356.356 0 00.064.274l.693.97-.583 1.04a.368.368 0 00.142.497l1.045.572-.076 1.189a.358.358 0 00.343.384l1.189.061.448 1.104a.367.367 0 00.477.198l1.099-.46.883.8a.359.359 0 00.245.093h.02a.356.356 0 00.251-.122l.79-.893 1.14.335zm-1.534-.993l-.7.79-.78-.707a.368.368 0 00-.385-.066l-.974.409-.396-.979a.356.356 0 00-.318-.225l-1.052-.054.066-1.052a.361.361 0 00-.189-.342l-.925-.507.517-.92a.362.362 0 00-.022-.39l-.615-.855.864-.605a.364.364 0 00.15-.36l-.182-1.04 1.04-.17a.364.364 0 00.291-.26l.29-1.016 1.01.299a.365.365 0 00.374-.108l.7-.79.78.707c.106.095.255.12.385.066l.974-.406.396.979c.054.13.176.217.318.225l1.052.054-.066 1.052a.361.361 0 00.189.342l.925.507-.517.92a.362.362 0 00.022.389l.614.856-.863.605a.364.364 0 00-.15.36l.182 1.04-1.04.17a.364.364 0 00-.292.26l-.288 1.016-1.01-.301a.36.36 0 00-.375.107z" fill="#000"></path>
    <path d="M8.778 61.422a3.223 3.223 0 00-3.083-2.324 3.213 3.213 0 00-3.086 4.094 3.226 3.226 0 003.083 2.324 3.212 3.212 0 003.086-4.094zm-2.4 3.272a2.52 2.52 0 01-.686.098 2.492 2.492 0 01-2.386-1.799 2.486 2.486 0 012.389-3.168c1.1 0 2.08.738 2.385 1.798a2.49 2.49 0 01-1.703 3.071zm53.69 29.116a.365.365 0 00.355.088l3.176-.912a.363.363 0 00.15-.612l-2.362-2.242a.361.361 0 00-.35-.085.37.37 0 00-.252.257l-.815 3.151a.37.37 0 00.098.355z" fill="#000"></path>
    <path d="M68.004 94.385l-7.341-6.77a.368.368 0 00-.348-.084.359.359 0 00-.25.255l-2.637 9.631a.38.38 0 000 .196c.137.477.71.707 1.755.707 1.061 0 2.53-.247 4.03-.678 1.36-.389 2.603-.886 3.506-1.4 1.082-.616 1.534-1.17 1.385-1.69a.347.347 0 00-.1-.167zm-4.987 2.562c-1.437.411-2.834.649-3.83.649-.65 0-.915-.1-1.01-.152l2.434-8.887 6.779 6.252c-.184.389-1.694 1.37-4.373 2.138zM28.808 27.774l-3.917 1.16 1.3 4.395 3.99-1.18-.14-.472-3.46 1.023-.464-1.578 2.828-.837-.139-.47-2.831.837-.414-1.405 3.387-1-.14-.473zm.952 1.036c.529 1.783 4.016-.524 4.41.814.203.683-.666 1.15-1.344 1.351-1.319.39-1.906-.042-2.26-.306l-.309.472c.5.306 1.209.75 2.648.323 1.492-.442 2.026-1.262 1.808-2.001-.582-1.973-4.04.433-4.434-.898-.164-.556.39-.97 1.273-1.231 1.196-.355 1.786.083 2.028.235l.294-.428c-.429-.333-1.282-.6-2.442-.257-1.197.352-1.95.988-1.672 1.925zm6.68-2.78l1.163 3.925.53-.157-1.159-3.925 2.122-.626-.14-.473-4.776 1.412.139.473 2.121-.63zm3.929 2.345l-.622.184.208.702.621-.184-.207-.702zm4.259-4.91c.798-.235 1.368.003 1.515.492.227.768-.436 1.089-1.304 1.904-.933.869-1.097 1.541-1.155 1.855l.12.406 3.79-1.12-.132-.449-3.248.96c.284-.774.754-1.182 1.459-1.78.616-.518 1.243-1.025.969-1.95-.225-.76-.962-1.115-2.207-.748-1.234.364-1.552 1.248-1.571 1.74l.497.075c.056-.408.227-1.076 1.267-1.385zm6.807.025c-.572-1.936-2.011-1.93-2.677-1.733-.665.196-1.874.977-1.301 2.91.482 1.632 1.676 1.996 2.667 1.703.99-.291 1.793-1.248 1.311-2.88zm-1.443 2.432c-.805.237-1.694-.21-2.053-1.431-.282-.955-.086-1.98.954-2.288 1.04-.309 1.762.445 2.046 1.402.36 1.22-.145 2.08-.947 2.317zm3.421-.642l2.248-.665-.132-.447-.876.259-1.199-4.057-.345.103c-.22.169-.66.477-1.01.633l.107.363.935-.35 1.02 3.452-.883.262.135.448zm6.614-1.957l-.132-.447-.877.259-1.199-4.057-.345.103c-.22.168-.66.477-1.01.633l.108.363.934-.35 1.02 3.452-.883.262.133.448 2.25-.666zM19.855 46.57c1.341 4.531 8.263 2.532 9.164 5.583.357 1.212-.26 2.176-1.336 2.494-.92.271-2.246-.093-3.184-1.938l-2.858 1.554c1.772 2.938 4.128 3.731 6.641 2.987 3.252-.961 4.615-3.364 3.793-6.146-1.5-5.07-8.461-3.206-9.186-5.65-.325-1.1.081-1.95 1.182-2.276 1.077-.318 1.943.132 2.91 1.505l2.542-1.63c-1.214-2.129-3.382-3.269-6.142-2.452-3.208.947-4.35 3.186-3.526 5.968zm19.028-3.04l-1.977-6.685-3.096.915 4.79 16.197 3.095-.915-1.466-4.958.668-2.197 5.24 5.84 3.476-1.027-7.502-8.295 2.242-7.762-3.387 1-2.038 7.873-.044.014zM53.59 31.907l-3.095.915 4.79 16.195 3.094-.916-4.79-16.194zm14.438 13.348l-3.09-10.453.044-.012 7.825 9.053 2.961-.876-4.791-16.196-2.826.837 2.84 9.6-.046.014-7.145-8.327-3.39 1 4.792 16.197 2.826-.837zM31.39 65.438c1.233-.365 2.166-.103 2.697 1.69l.132.448 3.095-.915-.012-.044c-1.182-3.993-3.715-4.806-6.72-3.915-3.004.888-4.69 2.949-3.508 6.942l1.71 5.787c1.182 3.994 3.715 4.806 6.72 3.915 3.004-.888 4.69-2.948 3.508-6.942l-.198-.673-3.095.916.318 1.076c.53 1.794-.108 2.52-1.344 2.885-1.233.365-2.165.103-2.696-1.69l-1.95-6.595c-.531-1.794.107-2.52 1.343-2.885zm13.615-6.761l-3.095.915 4.79 16.195 3.094-.915-4.79-16.195zM62.56 71.103l-3.982-13.461 3.612-1.067-.81-2.738-10.319 3.051.81 2.738 3.612-1.069 3.98 13.46 3.096-.914zm12.785-3.781l3.095-.918-1.938-6.548 1.569-10.955-3.299.977-.695 7.304-4.644-5.726-3.296.976 7.27 8.34 1.938 6.55z" fill="#000"></path>
</svg>