<?xml version="1.0" encoding="utf-8"?>
<!-- Generator: Adobe Illustrator 15.0.0, SVG Export Plug-In  -->
<!DOCTYPE svg PUBLIC "-//W3C//DTD SVG 1.1//EN" "http://www.w3.org/Graphics/SVG/1.1/DTD/svg11.dtd" [
	<!ENTITY ns_flows "http://ns.adobe.com/Flows/1.0/">
]>
<svg version="1.1"
	 xmlns="http://www.w3.org/2000/svg" xmlns:xlink="http://www.w3.org/1999/xlink" xmlns:a="http://ns.adobe.com/AdobeSVGViewerExtensions/3.0/"
	 x="0px" y="0px" width="64px" height="64px" viewBox="0 0 64 64" overflow="visible" enable-background="new 0 0 64 64"
	 xml:space="preserve">
<defs>
</defs>
<g>
	<defs>
		<rect id="SVGID_1_" width="64" height="64"/>
	</defs>
	<clipPath id="SVGID_4_">
		<use xlink:href="#SVGID_1_"  overflow="visible"/>
	</clipPath>
	<g clip-path="url(#SVGID_4_)" enable-background="new    ">
		<g>
			<defs>
				<rect id="SVGID_2_" y="1" width="63" height="62"/>
			</defs>
			<clipPath id="SVGID_5_">
				<use xlink:href="#SVGID_2_"  overflow="visible"/>
			</clipPath>
			<g clip-path="url(#SVGID_5_)">
				<defs>
					<rect id="SVGID_3_" x="0.068" y="1" width="62.932" height="61.849"/>
				</defs>
				<clipPath id="SVGID_6_">
					<use xlink:href="#SVGID_3_"  overflow="visible"/>
				</clipPath>
				<path clip-path="url(#SVGID_6_)" fill="#13110C" d="M19.932,54.66c0.211-0.379,0.058-0.713-0.394-0.965l-0.592-0.33
					l-1.231,2.202l0.616,0.345c0.446,0.248,0.85,0.213,1.094-0.224c0.152-0.273,0.129-0.446-0.021-0.723
					C19.641,54.957,19.824,54.852,19.932,54.66 M19.022,55.421c-0.107,0.191-0.295,0.255-0.516,0.133l-0.176-0.1l0.354-0.634
					l0.147,0.082C19.051,55.024,19.14,55.21,19.022,55.421z M19.484,54.47c-0.083,0.149-0.27,0.19-0.458,0.085l-0.147-0.082
					l0.293-0.525l0.168,0.094C19.538,54.152,19.575,54.309,19.484,54.47z"/>
				<polyline clip-path="url(#SVGID_6_)" fill="#13110C" points="21.093,56.079 21.271,55.692 20.691,55.424 20.937,54.897 
					21.697,55.25 21.877,54.863 20.678,54.308 19.616,56.597 20.846,57.167 21.025,56.781 20.232,56.412 20.513,55.811 
					21.093,56.079 				"/>
				<path clip-path="url(#SVGID_6_)" fill="#13110C" d="M22.978,57.995l0.318-2.576l-0.579-0.217l-1.473,2.142l0.436,0.163
					l0.314-0.449l0.624,0.234l-0.072,0.541L22.978,57.995 M22.226,56.689l0.58-0.871l0.007,0.002l-0.14,1.038L22.226,56.689z"/>
				<path clip-path="url(#SVGID_6_)" fill="#13110C" d="M24.629,55.86l-0.465-0.132l-0.482,1.7
					c-0.152,0.534,0.097,0.849,0.574,0.983c0.477,0.137,0.857,0,1.009-0.534l0.483-1.7l-0.464-0.132l-0.481,1.697
					c-0.066,0.232-0.205,0.323-0.431,0.26c-0.225-0.064-0.292-0.214-0.226-0.445L24.629,55.86"/>
				<polyline clip-path="url(#SVGID_6_)" fill="#13110C" points="25.991,56.675 26.542,56.786 26.13,58.841 26.603,58.936 
					27.015,56.881 27.566,56.991 27.65,56.573 26.074,56.257 25.991,56.675 				"/>
				<polyline clip-path="url(#SVGID_6_)" fill="#13110C" points="28.134,59.183 28.487,56.686 28.011,56.618 27.656,59.116 
					28.134,59.183 				"/>
				<polyline clip-path="url(#SVGID_6_)" fill="#13110C" points="30.209,57.288 30.246,56.864 28.994,56.754 28.772,59.266 
					29.253,59.308 29.349,58.223 29.954,58.275 29.991,57.851 29.386,57.798 29.437,57.221 30.209,57.288 				"/>
				<path clip-path="url(#SVGID_6_)" fill="#13110C" d="M30.595,56.885l-0.021,1.769c-0.007,0.556,0.315,0.793,0.812,0.799
					c0.496,0.007,0.828-0.224,0.834-0.779l0.021-1.769l-0.482-0.006l-0.021,1.765c-0.003,0.241-0.113,0.366-0.348,0.363
					s-0.337-0.13-0.334-0.371l0.021-1.765L30.595,56.885"/>
				<polyline clip-path="url(#SVGID_6_)" fill="#13110C" points="33.347,58.943 33.214,56.851 32.732,56.881 32.893,59.399 
					34.148,59.319 34.121,58.894 33.347,58.943 				"/>
				<path clip-path="url(#SVGID_6_)" fill="#13110C" d="M44.271,55.779l0.587-0.318l0.36,0.408l0.405-0.22l-1.738-1.928
					l-0.543,0.296l0.654,2.516l0.408-0.223L44.271,55.779 M43.865,54.352l0.006-0.002l0.693,0.784l-0.421,0.229L43.865,54.352z"/>
				<polyline clip-path="url(#SVGID_6_)" fill="#13110C" points="46.435,55.135 45.848,54.217 46.358,53.889 46.129,53.53 
					45.616,53.858 45.304,53.369 45.957,52.951 45.727,52.593 44.668,53.271 46.028,55.396 46.435,55.135 				"/>
				<polyline clip-path="url(#SVGID_6_)" fill="#13110C" points="47.878,54.15 47.232,53.271 47.723,52.91 47.47,52.568 
					46.979,52.928 46.637,52.461 47.261,52 47.009,51.658 45.995,52.403 47.49,54.437 47.878,54.15 				"/>
				<path clip-path="url(#SVGID_6_)" fill="#13110C" d="M49.729,52.676l0.352-0.297l-2.091-1.536l-0.473,0.398l1.149,2.331
					l0.355-0.299l-0.239-0.494l0.51-0.431L49.729,52.676 M48.574,52.397l-0.477-0.933l0.005-0.004l0.838,0.627L48.574,52.397z"/>
				<polyline clip-path="url(#SVGID_6_)" fill="#13110C" points="50.78,51.703 49.038,49.877 48.689,50.209 50.431,52.037 
					50.78,51.703 				"/>
				<path clip-path="url(#SVGID_6_)" fill="#13110C" d="M52.021,50.421l0.352-0.379l-1.147-0.418
					c0.108-0.267,0.019-0.503-0.211-0.718c-0.349-0.323-0.741-0.312-1.137,0.113l-0.476,0.512l1.848,1.719l0.328-0.354l-0.752-0.699
					l0.157-0.169L52.021,50.421 M50.703,49.744l-0.169,0.182l-0.513-0.476l0.169-0.183c0.146-0.155,0.312-0.18,0.49-0.012
					C50.859,49.422,50.849,49.588,50.703,49.744z"/>
				<path clip-path="url(#SVGID_6_)" fill="#13110C" d="M53.183,49.102c0.314-0.397,0.274-0.809-0.065-1.078
					c-0.619-0.49-1.31,0.336-1.607,0.1c-0.136-0.105-0.159-0.245-0.053-0.38c0.104-0.132,0.25-0.15,0.486-0.065l0.17-0.418
					c-0.332-0.156-0.694-0.109-0.961,0.229c-0.311,0.391-0.258,0.764,0.081,1.032c0.555,0.438,1.229-0.401,1.601-0.104
					c0.148,0.116,0.155,0.287,0.052,0.419c-0.09,0.112-0.282,0.181-0.556,0.036l-0.216,0.436
					C52.583,49.514,52.939,49.408,53.183,49.102"/>
				<polyline clip-path="url(#SVGID_6_)" fill="#13110C" points="17.118,16.511 14.354,17.304 15.242,20.406 18.059,19.598 
					17.964,19.266 15.522,19.965 15.204,18.852 17.2,18.279 17.104,17.946 15.108,18.519 14.824,17.529 17.214,16.844 
					17.118,16.511 				"/>
				<path clip-path="url(#SVGID_6_)" fill="#13110C" d="M17.781,17.245c0.361,1.258,2.829-0.345,3.1,0.598
					c0.138,0.482-0.476,0.806-0.954,0.943c-0.93,0.267-1.341-0.04-1.589-0.228l-0.219,0.331c0.349,0.219,0.846,0.533,1.861,0.242
					c1.054-0.302,1.434-0.878,1.284-1.398c-0.399-1.391-2.847,0.281-3.116-0.658c-0.112-0.393,0.28-0.681,0.903-0.859
					c0.845-0.243,1.258,0.068,1.427,0.177l0.209-0.3c-0.298-0.238-0.898-0.43-1.718-0.195
					C18.125,16.139,17.592,16.583,17.781,17.245"/>
				<polyline clip-path="url(#SVGID_6_)" fill="#13110C" points="22.501,15.328 23.295,18.097 23.671,17.989 22.876,15.22 
					24.374,14.79 24.278,14.458 20.908,15.424 21.004,15.757 22.501,15.328 				"/>
				<polyline clip-path="url(#SVGID_6_)" fill="#13110C" points="24.813,17.125 24.955,17.62 25.395,17.494 25.253,17 
					24.813,17.125 				"/>
				<path clip-path="url(#SVGID_6_)" fill="#13110C" d="M28.277,13.569c0.563-0.162,0.964,0.01,1.063,0.356
					c0.155,0.542-0.312,0.763-0.93,1.333c-0.662,0.605-0.78,1.078-0.823,1.299l0.082,0.286l2.675-0.767l-0.091-0.316l-2.291,0.657
					c0.204-0.543,0.538-0.829,1.037-1.244c0.438-0.361,0.881-0.714,0.693-1.367c-0.154-0.538-0.67-0.791-1.549-0.539
					c-0.87,0.25-1.099,0.869-1.115,1.215l0.349,0.057C27.42,14.25,27.544,13.78,28.277,13.569"/>
				<path clip-path="url(#SVGID_6_)" fill="#13110C" d="M33.069,13.627c-0.392-1.366-1.404-1.37-1.873-1.236
					c-0.47,0.135-1.326,0.675-0.935,2.041c0.33,1.151,1.168,1.415,1.867,1.214C32.829,15.446,33.399,14.779,33.069,13.627
					 M32.039,15.331c-0.567,0.163-1.19-0.158-1.438-1.019c-0.193-0.674-0.049-1.395,0.685-1.604c0.734-0.21,1.238,0.323,1.431,0.998
					C32.965,14.567,32.605,15.168,32.039,15.331z"/>
				<path clip-path="url(#SVGID_6_)" fill="#13110C" d="M34.45,14.898l1.587-0.455l-0.09-0.315l-0.619,0.177l-0.82-2.863
					l-0.243,0.07c-0.156,0.119-0.469,0.333-0.715,0.44l0.073,0.256l0.66-0.24l0.699,2.437l-0.623,0.178L34.45,14.898"/>
				<path clip-path="url(#SVGID_6_)" fill="#13110C" d="M39.118,13.56l-0.09-0.316l-0.619,0.177l-0.821-2.863l-0.243,0.07
					c-0.155,0.118-0.468,0.332-0.714,0.44l0.073,0.256l0.66-0.24l0.699,2.437l-0.623,0.178l0.091,0.315L39.118,13.56"/>
				<path clip-path="url(#SVGID_6_)" fill="#13110C" d="M12.135,28.909c0.825,2.877,5.221,1.648,5.776,3.585
					c0.221,0.77-0.176,1.377-0.859,1.572c-0.584,0.168-1.423-0.07-2.007-1.244l-1.818,0.968c1.107,1.872,2.596,2.386,4.191,1.928
					c2.065-0.592,2.941-2.107,2.435-3.874c-0.923-3.22-5.344-2.075-5.788-3.628c-0.201-0.698,0.062-1.236,0.76-1.437
					c0.684-0.196,1.229,0.095,1.835,0.97l1.619-1.02c-0.759-1.355-2.125-2.088-3.877-1.586
					C12.364,25.729,11.628,27.143,12.135,28.909"/>
				<polyline clip-path="url(#SVGID_6_)" fill="#13110C" points="25.159,26.809 23.942,22.563 21.977,23.127 24.926,33.412 
					26.892,32.848 25.989,29.7 26.423,28.311 29.713,32.04 31.92,31.406 27.211,26.112 28.672,21.207 26.521,21.824 25.188,26.8 
					25.159,26.809 				"/>
				<polyline clip-path="url(#SVGID_6_)" fill="#13110C" points="37.489,29.81 34.54,19.524 32.574,20.088 35.523,30.373 
					37.489,29.81 				"/>
				<polyline clip-path="url(#SVGID_6_)" fill="#13110C" points="43.843,27.987 41.939,21.35 41.968,21.341 46.876,27.118 
					48.757,26.579 45.808,16.293 44.013,16.808 45.762,22.905 45.733,22.913 41.249,17.601 39.099,18.217 42.048,28.502 
					43.843,27.987 				"/>
				<path clip-path="url(#SVGID_6_)" fill="#13110C" d="M20.107,41.578c0.783-0.225,1.372-0.055,1.698,1.086l0.082,0.285
					l1.966-0.563l-0.008-0.028c-0.728-2.537-2.328-3.064-4.236-2.518c-1.909,0.549-2.986,1.844-2.26,4.379l1.054,3.676
					c0.728,2.536,2.328,3.063,4.237,2.517c1.908-0.548,2.986-1.843,2.259-4.38l-0.122-0.427l-1.966,0.563l0.196,0.684
					c0.326,1.141-0.082,1.597-0.866,1.82c-0.783,0.226-1.372,0.055-1.698-1.084l-1.201-4.189
					C18.915,42.26,19.324,41.803,20.107,41.578"/>
				<polyline clip-path="url(#SVGID_6_)" fill="#13110C" points="27.171,37.826 30.12,48.112 32.086,47.548 29.137,37.263 
					27.171,37.826 				"/>
				<polyline clip-path="url(#SVGID_6_)" fill="#13110C" points="40.191,45.225 37.74,36.677 40.033,36.02 39.536,34.281 
					32.982,36.16 33.48,37.898 35.774,37.24 38.225,45.787 40.191,45.225 				"/>
				<polyline clip-path="url(#SVGID_6_)" fill="#13110C" points="48.31,42.896 50.275,42.332 49.083,38.172 50.133,31.243 
					48.038,31.843 47.561,36.467 44.648,32.815 42.555,33.415 47.116,38.736 48.31,42.896 				"/>
				<path clip-path="url(#SVGID_6_)" fill="#13110C" d="M18.985,6.455c-5.154,2.558-9.372,6.578-12.199,11.625
					c-2.825,5.044-4.05,10.737-3.541,16.464c0.013,0.145,0.134,0.253,0.276,0.253c0.008,0,0.017-0.001,0.025-0.001
					c0.152-0.014,0.265-0.148,0.252-0.301c-1.012-11.39,5.19-22.459,15.434-27.542c0.137-0.069,0.193-0.235,0.125-0.373
					C19.289,6.443,19.122,6.387,18.985,6.455"/>
				<path clip-path="url(#SVGID_6_)" fill="#13110C" d="M6.772,44.82c-0.07-0.137-0.236-0.19-0.373-0.121s-0.191,0.236-0.121,0.373
					c2.61,5.109,6.664,9.273,11.725,12.044c4.238,2.319,8.92,3.516,13.685,3.516c0.929,0,1.861-0.046,2.793-0.138
					c0.152-0.015,0.264-0.149,0.25-0.303c-0.017-0.152-0.153-0.264-0.305-0.248C23.073,61.057,11.961,54.979,6.772,44.82"/>
				<path clip-path="url(#SVGID_6_)" fill="#13110C" d="M44.456,57.635c10.551-5.235,16.865-16.629,15.715-28.35
					c-0.015-0.153-0.151-0.264-0.304-0.25c-0.151,0.016-0.264,0.151-0.247,0.304c1.127,11.493-5.066,22.665-15.41,27.799
					c-0.138,0.067-0.193,0.233-0.126,0.371c0.049,0.098,0.146,0.154,0.249,0.154C44.374,57.663,44.416,57.653,44.456,57.635"/>
				<path clip-path="url(#SVGID_6_)" fill="#13110C" d="M57.062,19.709c0.041,0,0.084-0.009,0.123-0.029
					c0.138-0.068,0.194-0.234,0.126-0.372C52.075,8.759,40.683,2.443,28.961,3.594c-0.152,0.016-0.264,0.151-0.249,0.304
					c0.015,0.152,0.151,0.263,0.304,0.249C40.509,3.021,51.68,9.211,56.814,19.555C56.862,19.653,56.961,19.709,57.062,19.709"/>
				<path clip-path="url(#SVGID_6_)" fill="#13110C" d="M1.892,35.527c0.019,0,0.037-0.002,0.056-0.004
					c0.305-0.029,0.528-0.301,0.497-0.607C1.236,22.742,7.815,10.964,18.815,5.61c0.275-0.134,0.39-0.466,0.256-0.742
					c-0.134-0.275-0.466-0.39-0.741-0.256C6.914,10.169,0.086,22.391,1.34,35.027C1.369,35.312,1.61,35.527,1.892,35.527"/>
				<path clip-path="url(#SVGID_6_)" fill="#13110C" d="M34.783,61.3c-12.116,1.286-23.914-5.176-29.36-16.075
					c-0.137-0.273-0.47-0.385-0.745-0.248c-0.274,0.137-0.386,0.471-0.249,0.744c5.175,10.357,15.876,16.852,27.299,16.852
					c1.051,0,2.11-0.055,3.171-0.167c0.305-0.033,0.525-0.307,0.492-0.611C35.361,61.489,35.086,61.271,34.783,61.3"/>
				<path clip-path="url(#SVGID_6_)" fill="#13110C" d="M61.471,28.371c-0.305,0.032-0.525,0.305-0.494,0.61
					c1.298,12.251-5.272,24.105-16.351,29.497c-0.275,0.135-0.389,0.467-0.256,0.742c0.097,0.197,0.294,0.312,0.499,0.312
					c0.082,0,0.165-0.018,0.244-0.056c11.494-5.596,18.314-17.898,16.968-30.612C62.049,28.559,61.775,28.341,61.471,28.371"/>
				<path clip-path="url(#SVGID_6_)" fill="#13110C" d="M28.657,2.788c12.167-1.29,23.987,5.214,29.413,16.179
					c0.097,0.195,0.294,0.309,0.498,0.309c0.083,0,0.166-0.018,0.246-0.057c0.274-0.136,0.387-0.469,0.251-0.744
					C53.434,7.095,41.166,0.348,28.54,1.684c-0.305,0.032-0.525,0.306-0.493,0.611C28.079,2.6,28.354,2.819,28.657,2.788"/>
				<path clip-path="url(#SVGID_6_)" fill="#13110C" d="M63.661,23.269c-0.042-0.147-0.194-0.231-0.342-0.189
					c-0.133,0.039-0.221-0.011-0.415-0.153c-0.207-0.15-0.487-0.354-0.894-0.238c-0.406,0.117-0.536,0.439-0.632,0.675
					c-0.09,0.223-0.136,0.312-0.271,0.35c-0.134,0.039-0.22-0.011-0.415-0.153c-0.206-0.149-0.487-0.354-0.893-0.238
					c-0.406,0.117-0.536,0.439-0.632,0.675c-0.09,0.223-0.136,0.312-0.27,0.35c-0.135,0.039-0.221-0.012-0.415-0.153
					c-0.205-0.15-0.486-0.355-0.893-0.238c-0.406,0.116-0.535,0.439-0.631,0.675c-0.091,0.223-0.137,0.312-0.27,0.35
					c-0.134,0.038-0.221-0.012-0.416-0.154c-0.205-0.149-0.485-0.354-0.892-0.237c-0.147,0.042-0.231,0.194-0.189,0.341
					s0.195,0.231,0.342,0.189c0.133-0.038,0.22,0.012,0.415,0.153c0.163,0.119,0.374,0.272,0.656,0.272
					c0.074,0,0.152-0.01,0.235-0.034c0.406-0.116,0.535-0.439,0.632-0.675c0.089-0.224,0.136-0.312,0.27-0.35
					c0.135-0.039,0.22,0.012,0.415,0.153c0.206,0.15,0.486,0.355,0.893,0.238c0.405-0.116,0.536-0.439,0.631-0.675
					c0.09-0.224,0.137-0.312,0.271-0.35c0.134-0.038,0.22,0.012,0.415,0.154c0.205,0.149,0.486,0.354,0.893,0.238
					c0.406-0.117,0.536-0.439,0.631-0.675c0.091-0.224,0.138-0.312,0.272-0.351c0.133-0.039,0.22,0.012,0.415,0.154
					c0.205,0.149,0.486,0.354,0.893,0.237C63.618,23.568,63.703,23.416,63.661,23.269"/>
				<path clip-path="url(#SVGID_6_)" fill="#13110C" d="M58.755,22.225c-0.053,0.113-0.141,0.3-0.176,0.329
					c-0.074,0.005-0.283-0.128-0.398-0.202c-0.237-0.154-0.484-0.312-0.734-0.241c-0.44,0.127-0.532,0.484-0.594,0.721
					c-0.053,0.206-0.074,0.237-0.13,0.253c-0.076,0.022-0.141-0.02-0.309-0.165c-0.177-0.154-0.446-0.386-0.821-0.277
					c-0.146,0.042-0.231,0.195-0.189,0.341c0.042,0.147,0.194,0.231,0.341,0.189c0.076-0.022,0.141,0.021,0.309,0.165
					c0.146,0.126,0.354,0.305,0.631,0.305c0.061,0,0.125-0.009,0.191-0.027c0.373-0.107,0.457-0.432,0.513-0.647
					c0.057-0.219,0.087-0.286,0.193-0.322c0.063,0.015,0.211,0.11,0.301,0.168c0.258,0.166,0.55,0.355,0.848,0.269
					c0.268-0.076,0.398-0.354,0.526-0.624c0.057-0.12,0.15-0.32,0.189-0.348c0.066,0.004,0.252,0.118,0.364,0.189
					c0.25,0.162,0.509,0.328,0.777,0.251c0.297-0.085,0.446-0.4,0.577-0.677c0.045-0.097,0.12-0.255,0.165-0.302
					c0.11-0.025,0.172,0.015,0.335,0.17c0.161,0.153,0.403,0.384,0.777,0.277c0.147-0.042,0.231-0.194,0.189-0.342
					c-0.042-0.146-0.195-0.231-0.342-0.189c-0.056,0.016-0.09,0-0.244-0.146c-0.177-0.169-0.444-0.423-0.886-0.297
					c-0.249,0.072-0.375,0.337-0.495,0.593c-0.059,0.123-0.167,0.353-0.215,0.379c-0.062-0.002-0.237-0.115-0.342-0.182
					c-0.246-0.158-0.525-0.338-0.806-0.257C59.022,21.66,58.881,21.961,58.755,22.225"/>
				<path clip-path="url(#SVGID_6_)" fill="#13110C" d="M62.925,25.044c-0.061,0.018-0.125-0.028-0.279-0.167
					c-0.173-0.157-0.435-0.394-0.802-0.29c-0.367,0.106-0.464,0.446-0.526,0.67c-0.057,0.199-0.087,0.272-0.148,0.29
					c-0.06,0.016-0.125-0.028-0.277-0.167c-0.174-0.157-0.436-0.395-0.803-0.29c-0.367,0.106-0.463,0.445-0.527,0.671
					c-0.056,0.198-0.086,0.271-0.146,0.289c-0.062,0.018-0.126-0.029-0.278-0.167c-0.174-0.157-0.436-0.395-0.802-0.29
					c-0.367,0.105-0.463,0.445-0.527,0.67c-0.055,0.198-0.087,0.271-0.146,0.29c-0.061,0.017-0.126-0.029-0.278-0.168
					c-0.173-0.157-0.435-0.395-0.801-0.289c-0.146,0.042-0.232,0.195-0.19,0.342c0.043,0.146,0.195,0.231,0.343,0.189
					c0.059-0.016,0.126,0.029,0.277,0.167c0.144,0.13,0.347,0.316,0.622,0.316c0.057,0,0.116-0.008,0.18-0.026
					c0.367-0.105,0.463-0.445,0.526-0.67c0.057-0.198,0.087-0.272,0.147-0.289c0.06-0.018,0.125,0.028,0.277,0.167
					c0.174,0.157,0.436,0.396,0.802,0.289c0.367-0.105,0.464-0.445,0.526-0.67c0.057-0.199,0.087-0.272,0.147-0.29
					c0.061-0.016,0.126,0.029,0.278,0.168c0.174,0.157,0.436,0.395,0.802,0.289c0.367-0.105,0.464-0.445,0.527-0.67
					c0.056-0.199,0.087-0.272,0.147-0.29c0.061-0.017,0.126,0.029,0.278,0.167c0.174,0.157,0.436,0.394,0.803,0.29
					c0.147-0.042,0.231-0.195,0.189-0.342S63.071,25.003,62.925,25.044"/>
				<path clip-path="url(#SVGID_6_)" fill="#13110C" d="M22.963,4.297c0.105,0.37,0.491,0.584,0.86,0.478
					c0.37-0.106,0.584-0.492,0.478-0.861c-0.105-0.37-0.491-0.584-0.861-0.478C23.07,3.541,22.856,3.927,22.963,4.297"/>
				<path clip-path="url(#SVGID_6_)" fill="#13110C" d="M22.606,2.67c0.293-0.084,0.463-0.39,0.379-0.683
					c-0.085-0.293-0.391-0.463-0.684-0.379c-0.293,0.084-0.463,0.391-0.38,0.684C22.007,2.584,22.312,2.754,22.606,2.67"/>
				<path clip-path="url(#SVGID_6_)" fill="#13110C" d="M21.898,4.873c0.37-0.106,0.584-0.492,0.478-0.862
					c-0.106-0.37-0.492-0.583-0.861-0.477c-0.37,0.105-0.584,0.491-0.478,0.861C21.143,4.765,21.529,4.979,21.898,4.873"/>
				<path clip-path="url(#SVGID_6_)" fill="#13110C" d="M22.44,5.635c-0.294,0.084-0.464,0.39-0.379,0.684
					c0.084,0.293,0.391,0.462,0.684,0.378c0.294-0.084,0.463-0.39,0.379-0.684C23.039,5.72,22.733,5.551,22.44,5.635"/>
				<path clip-path="url(#SVGID_6_)" fill="#13110C" d="M25.527,5.935c-0.105-0.37-0.491-0.583-0.86-0.477
					c-0.37,0.106-0.584,0.492-0.479,0.861c0.106,0.37,0.492,0.583,0.862,0.478C25.42,6.69,25.634,6.305,25.527,5.935"/>
				<path clip-path="url(#SVGID_6_)" fill="#13110C" d="M25.281,4.305c0.085,0.293,0.391,0.463,0.684,0.379
					C26.258,4.6,26.428,4.293,26.344,4c-0.084-0.293-0.391-0.463-0.684-0.379C25.367,3.706,25.197,4.012,25.281,4.305"/>
				<path clip-path="url(#SVGID_6_)" fill="#13110C" d="M24.978,2.543c0.37-0.106,0.584-0.492,0.478-0.862
					c-0.105-0.37-0.491-0.584-0.861-0.478c-0.37,0.106-0.583,0.492-0.478,0.861C24.223,2.435,24.608,2.649,24.978,2.543"/>
				<path clip-path="url(#SVGID_6_)" fill="#13110C" d="M5.502,43.23c0.059,0.018,0.122,0.011,0.176-0.02
					c0.054-0.029,0.093-0.08,0.11-0.139l0.206-0.727l0.745-0.121c0.061-0.01,0.115-0.045,0.15-0.094
					c0.036-0.051,0.05-0.112,0.039-0.174l-0.13-0.742l0.619-0.432c0.05-0.035,0.084-0.09,0.095-0.15
					c0.011-0.061-0.004-0.123-0.04-0.174l-0.44-0.613l0.37-0.658c0.03-0.053,0.037-0.117,0.02-0.176
					c-0.017-0.059-0.056-0.109-0.11-0.139L6.651,38.51l0.047-0.752c0.004-0.062-0.017-0.122-0.059-0.168
					c-0.04-0.046-0.098-0.074-0.16-0.076l-0.753-0.039l-0.284-0.699c-0.023-0.057-0.068-0.103-0.125-0.126
					c-0.057-0.023-0.121-0.023-0.177,0l-0.696,0.292l-0.559-0.508c-0.046-0.041-0.106-0.061-0.167-0.059
					c-0.061,0.004-0.119,0.031-0.16,0.078l-0.5,0.564l-0.723-0.214c-0.059-0.019-0.123-0.011-0.177,0.019s-0.093,0.08-0.11,0.139
					l-0.206,0.727l-0.745,0.121c-0.061,0.011-0.115,0.044-0.151,0.094c-0.036,0.051-0.049,0.113-0.039,0.174l0.129,0.743
					l-0.618,0.432C0.368,39.286,0.333,39.34,0.323,39.4s0.004,0.123,0.04,0.174l0.439,0.613l-0.369,0.658
					c-0.03,0.054-0.037,0.117-0.021,0.176C0.43,41.08,0.47,41.131,0.523,41.16l0.662,0.363l-0.047,0.752
					c-0.003,0.062,0.017,0.123,0.058,0.168c0.042,0.047,0.099,0.074,0.16,0.077l0.754,0.038l0.284,0.699
					c0.023,0.057,0.068,0.103,0.125,0.127c0.057,0.022,0.12,0.022,0.177-0.001l0.696-0.292l0.56,0.508
					c0.042,0.037,0.098,0.059,0.155,0.059c0.004,0,0.008,0,0.012,0c0.062-0.004,0.12-0.031,0.16-0.077l0.5-0.565L5.502,43.23
					 M4.53,42.601l-0.443,0.501l-0.495-0.449c-0.043-0.039-0.098-0.059-0.155-0.059c-0.03,0-0.06,0.006-0.088,0.018l-0.617,0.258
					L2.481,42.25c-0.034-0.083-0.112-0.139-0.202-0.144l-0.667-0.034l0.042-0.666c0.006-0.09-0.041-0.174-0.119-0.217l-0.586-0.322
					l0.327-0.582c0.044-0.078,0.039-0.174-0.013-0.246l-0.389-0.544l0.548-0.382c0.073-0.052,0.111-0.141,0.095-0.229l-0.115-0.659
					l0.66-0.108c0.088-0.014,0.16-0.078,0.185-0.164l0.182-0.643l0.641,0.19c0.085,0.025,0.179-0.001,0.237-0.068l0.443-0.501
					l0.495,0.449c0.066,0.06,0.161,0.076,0.244,0.041l0.617-0.258l0.251,0.619c0.034,0.083,0.113,0.139,0.202,0.145l0.667,0.033
					l-0.042,0.666c-0.005,0.09,0.041,0.174,0.12,0.217l0.586,0.321l-0.327,0.583c-0.044,0.078-0.039,0.174,0.014,0.247l0.389,0.543
					L6.415,40.92c-0.073,0.053-0.11,0.141-0.095,0.229l0.114,0.657l-0.659,0.108c-0.088,0.015-0.16,0.079-0.184,0.165l-0.183,0.643
					l-0.64-0.189C4.682,42.507,4.59,42.533,4.53,42.601z"/>
				<path clip-path="url(#SVGID_6_)" fill="#13110C" d="M5.873,39.456c-0.249-0.867-1.052-1.474-1.953-1.474
					c-0.189,0-0.378,0.027-0.562,0.08c-1.077,0.309-1.703,1.438-1.394,2.515c0.25,0.868,1.052,1.474,1.954,1.474
					c0.189,0,0.378-0.027,0.561-0.08C5.556,41.662,6.181,40.533,5.873,39.456 M4.352,41.528c-0.142,0.041-0.288,0.062-0.435,0.062
					c-0.697,0-1.318-0.469-1.511-1.14c-0.239-0.833,0.245-1.706,1.079-1.945c0.142-0.04,0.288-0.062,0.435-0.062
					c0.697,0,1.318,0.469,1.511,1.14C5.669,40.417,5.185,41.289,4.352,41.528z"/>
				<path clip-path="url(#SVGID_6_)" fill="#13110C" d="M38.366,59.974c0.043,0.042,0.101,0.064,0.16,0.064
					c0.021,0,0.043-0.002,0.063-0.009l2.013-0.577c0.08-0.022,0.142-0.086,0.16-0.167c0.02-0.08-0.005-0.165-0.064-0.222
					l-1.497-1.419c-0.059-0.056-0.144-0.076-0.222-0.055c-0.078,0.023-0.14,0.085-0.159,0.164l-0.518,1.997
					C38.283,59.831,38.307,59.915,38.366,59.974"/>
				<path clip-path="url(#SVGID_6_)" fill="#13110C" d="M43.393,60.339l-4.649-4.29c-0.061-0.054-0.144-0.074-0.221-0.053
					c-0.077,0.022-0.138,0.083-0.158,0.161l-1.671,6.103c-0.012,0.04-0.012,0.083,0.001,0.123c0.086,0.302,0.451,0.448,1.111,0.448
					c0.672,0,1.604-0.155,2.554-0.429c0.861-0.247,1.65-0.562,2.222-0.887c0.685-0.391,0.972-0.741,0.877-1.071
					C43.446,60.403,43.423,60.366,43.393,60.339 M40.232,61.96c-0.91,0.262-1.795,0.411-2.427,0.411
					c-0.412,0-0.578-0.062-0.639-0.097l1.542-5.63l4.293,3.96C42.887,60.854,41.931,61.474,40.232,61.96z"/>
			</g>
		</g>
	</g>
</g>
</svg>
