<?xml version="1.0" encoding="UTF-8"?> <svg xmlns="http://www.w3.org/2000/svg" id="Lager_1" data-name="Lager 1" viewBox="0 0 538.62 120.6"><title>femina_logo</title><path d="M506.45,0,454.87,75.47V0H421.18V57.35L381,0H349.91V120.6H384V61.4l42.84,59.21h35.44l10.32-15.44h32.91V120.6h33.11V0Zm-.95,77.59H490.29l15.22-22.36Z" style="fill:#D5313A;fill-rule:evenodd"></path><polygon points="310.57 0 343.29 0 343.29 120.6 310.57 120.6 310.57 0 310.57 0" style="fill:#D5313A;fill-rule:evenodd"></polygon><polygon points="77.65 0 147.37 0 147.37 30.16 111.15 30.16 111.15 45.2 147.37 45.2 147.37 74.12 111.15 74.12 111.15 90.7 139.97 90.7 203.65 0 233.45 0 233.45 57.73 272.98 0 303.95 0 303.95 120.6 270.84 120.6 270.84 57.16 226.83 120.6 201.12 120.6 201.12 56.38 156.89 120.6 77.65 120.6 77.65 0 77.65 0" style="fill:#D5313A;fill-rule:evenodd"></polygon><polygon points="0 0 71.03 0 71.03 30.16 34.42 30.16 34.42 45.2 71.03 45.2 71.03 74.12 34.42 74.12 34.42 120.6 0 120.6 0 0 0 0" style="fill:#D5313A;fill-rule:evenodd"></polygon></svg> 