<svg xmlns="http://www.w3.org/2000/svg" viewBox="0 0 4445.6 702.3" style="enable-background:new 0 0 4445.6 702.3" xml:space="preserve"><path d="M4445.6 325.9V93.2L4366.1.7h-411.5v14.5L3942.1.7h-315.9l-20.7.5-.1 94.5-62.9-72.7-.7-.8C3528.6 8.4 3510.9.7 3492.1.7h-303.4l.2 110.1 28.9 35.5.1 352.4-62.8-405.3-78.4-90.9h-191L2824.4 424l-39.3-47.4h-72.8l-.2-170.9h33.4v-114L2665.3-.4h-215.9v90l-56-65C2380.1 9.5 2361.2.8 2341.5.8h-320.9v24.8L1998.2-.3h-167.8v42.2L1795 1 1600.5.9V101l-.3-.3-67.6-78.2-1.4-1.5c-13-12.2-29.7-18.9-47.2-18.9h-216.9c-26 0-47.8 12.6-59.9 32.3L1180.9 4H769.4v21.2l-18.1-21H419.5v109.7l36.4 45.4-.1 345.1-12.8-.1-63.3-407.7-78.3-91.9H110.3L37.7 504.5H0v102.4L79.5 702h404v-33.5l27.9 33.8h203.4V600.7L680 558.6v-71.4h92.9v-115l-35.3-43H831v-21.5l17.7 21.5 51.4-.1-.1 175.4h-39.3V606l79.4 96.2h227.6V600.7l-43.6-52.7-.1-249.3 25.1 30.4h47.3l-.3 215.1c0 19 7 37 19.9 50.7l67.7 82.1 1.1 1.2c12.7 13.2 29.3 20.5 46.8 20.5 1.1 0 2.2-.1 3.3-.1h216.8c.5.1 1.2.1 1.8.1 18.4 0 35.7-7.6 48.6-21.2 12.8-13.6 19.9-31.6 19.9-50.7v-.2l56.7 71.3h167V661l29.1 36.9h175.4v-61.1l51.1 62h308.5c34.4 0 63.1-25.8 68.8-59.8l49.4 59.8h310.4V665l28 33.6h381.2v-34.1l28.3 34.3h284.9c38.5 0 69.9-32.6 69.9-72.5l59.9 72.5H4022V490.4l-68.9-82.7v-63l-15.7-18.8h84.6v-14.4l11.9 14.5 51.5-.2-.2 175.4H4046v101.5l79.4 96.3H4353V597.4l-43.5-52.7-.1-249.3 25 30.5h111.2zM2479.6 149c0-.5 0-1.1-.1-1.7l.1.1v1.6zm0 197.8v95.8c-.8-18.7-8.3-35.5-20.3-47.9 11.9-12.3 19.5-29.2 20.3-47.9z" style="fill-rule:evenodd;clip-rule:evenodd"/><path d="M455.9 84.4H491v448.3h-35.1v48.5h152v-48.5h-23.4V363h81.8v-60.5h-81.8V84.4H678v121.1h46.8V35.9H455.9m350.7 169.6h46.8V84.4h81.8v448.3h-46.8v48.5h175.3v-48.5H1017V84.4h81.8v121.1h58.4V35.9H806.6m677.1 0h-217.6c-20.5 0-38.6 17.3-38.6 38.5v469.8c0 21.2 18.2 36.9 38.6 36.9h217.6c20.5 0 36-15.7 36-36.9V74.4c0-21.2-15.6-38.5-36-38.5zm-57.5 432.6c0 27.1-10.2 64.1-34.6 64.1h-33.2c-23.9 0-37.4-36.9-37.4-64.1V146.4c0-27.1 12.4-62 37.4-62h33.2c24.2 0 34.6 34.9 34.6 62v322.1zm432.5-384.1h35.1v360.8L1776.4 35.9h-139.8v48.5h23.4v448.3h-23.4v48.5h105.2v-48.5h-23.4V172.8l107.3 408.3h126.5V84.3h23.4V35.9h-116.9m841.7 484.6h-93.5V84.4h35.1V35.9h-163.7v48.5h35.1v448.3h-35.1v48.5h280.5V411.4h-58.4M281.6 35.9h-143L66.1 532.7h-31v50.8l151.9-.2v-50.6h-40.1l21.5-133.2h85.1l18 133.2h-37.7v48.5h152v-48.5H360L281.6 35.9zm-111.5 315 37.5-228.1 39.7 228.1h-77.2zm2886.7-315h-142.9l-72.6 496.8h-35.8v50.8l151.9-.2v-50.6H2922l21.5-133.2h85l18 133.2h-30.8v48.5h152v-48.5H3135l-78.2-496.8zm-111.5 315 37.5-228.1 39.8 228.1h-77.3zm690.2-266.5h35.1v448.3h-23.4v48.5h268.9V423.6h-58.5v109h-93.5V338.8h81.9v-60.6h-81.9V84.4h93.5v121.1h58.5V35.9h-280.5m-143.1 0h-266.1v48.5h23.4v448.3h-35.1v48.5h277.7c20.4 0 37.8-16.2 37.8-37.5V73.5c.1-21.2-17.3-37.6-37.7-37.6zm-55.7 442.5c0 26.6-8.1 54.2-34.7 54.2h-58.8V90.1h59.4c26.6 0 34.2 30.4 34.2 56.9l-.1 331.4zm549.5-442.5v169.6h58.4V84.4h70.1v448.3h-35.1v48.5H4255v-48.5h-46.8V84.4h81.8v121.1h58.5V35.9M2327.6 311.4c30.8 0 50.8-25.7 50.9-57.5l.1-180.1c0-21.2-16.7-38-37.2-38h-284v48.5h35.1v448.3h-35.1v48.5h284.1c20.4 0 37.2-16.7 37.2-37.9l-.1-174.3c-.1-31.9-20.1-57.4-51-57.5zm-36.4 167.8c0 26.5-12.9 53.4-38.5 53.4h-78.4v-195h76.6c26.4 0 40.3 30.4 40.3 56.9v84.7zm0-253.5c0 26.6-14.1 52.5-38.5 52.5h-78.4V90.1h76.6c25.8 0 40.3 30.4 40.3 56.9v78.7z" style="fill-rule:evenodd;clip-rule:evenodd;fill:#ffeb00"/></svg>