<svg class="mnd-common-logo" width="130" height="21" viewBox="0 0 130 21" xmlns="http://www.w3.org/2000/svg" role="img" aria-label="mynewsdesk"><path fill-rule="evenodd" clip-rule="evenodd" d="M51.55 15.834c-1.985 2.83-4.547 4.326-7.814 4.326-4.196 0-8.232-2.825-8.232-9.092 0-5.722 3.46-8.958 7.976-8.958 4.227 0 5.988 2.691 6.31 3.202 1.312 1.977 1.6 4.939 1.633 6.64h-11.85c.447 2.691 2.017 4.224 4.547 4.224 2.627 0 3.684-1.634 4.165-2.35l3.266 2.008zm-4.356-6.88c-.352-2.656-1.889-3.575-3.587-3.575-2.05 0-3.459 1.261-3.907 3.576h7.494zM69.72 2.621h4.002L68.918 19.65h-3.81L62.224 8.786 59.15 19.65h-3.78L50.728 2.62h4.003l2.787 11.648L60.495 2.62h3.428l2.946 11.648L69.72 2.62zM20.457 2.62h3.877v2.012c.19-.308.577-.852 1.247-1.33.962-.748 2.434-1.192 3.683-1.192 1.826 0 3.397.886 4.198 2.043.99 1.43.99 3.27.99 5.486v10.01h-3.81v-8.683c0-1.261 0-2.112-.128-2.589-.352-1.497-1.377-2.283-2.626-2.283-1.249 0-2.402.786-2.947 1.91-.607 1.257-.607 2.994-.607 4.254v7.392h-3.877V2.62zm55.284 11.99c.961 1.26 2.4 2.18 4.613 2.18 2.208 0 3.172-1.158 3.172-2.008 0-1.092-1.152-1.364-1.668-1.466-.545-.137-3.17-.648-3.747-.817-3.813-.955-4.517-3.305-4.517-4.837 0-2.896 2.467-5.552 6.853-5.552 2.437 0 4.199.817 5.287 1.635a7.261 7.261 0 0 1 1.635 1.534l-2.723 2.69c-.45-.92-1.537-2.59-4.356-2.59-1.826 0-2.659.853-2.659 1.737 0 1.226 1.184 1.568 3.233 1.943 3.333.646 4.262.817 5.284 1.667.996.818 1.635 2.181 1.635 3.612 0 2.655-2.241 5.823-7.205 5.823-2.854 0-5.67-.954-7.688-3.032l2.851-2.519zm32.032 2.342c-1.406 2.002-3.222 3.063-5.536 3.063-2.972 0-5.83-2-5.83-6.44 0-4.054 2.45-6.345 5.649-6.345 2.994 0 4.242 1.906 4.47 2.267.929 1.399 1.134 3.499 1.158 4.705h-8.395c.316 1.906 1.428 2.992 3.22 2.992 1.861 0 2.611-1.159 2.95-1.665l2.314 1.423zm-3.086-4.873c-.249-1.882-1.337-2.534-2.542-2.534-1.452 0-2.45.893-2.767 2.534h5.309zm5.088 4.006c.682.893 1.704 1.543 3.269 1.543 1.564 0 2.246-.82 2.246-1.424 0-.77-.817-.965-1.181-1.037-.384-.097-2.246-.458-2.652-.577-2.701-.677-3.2-2.342-3.2-3.427 0-2.051 1.747-3.933 4.855-3.933 1.725 0 2.973.578 3.743 1.157.569.387.931.796 1.158 1.087l-1.928 1.905c-.318-.652-1.089-1.835-3.088-1.835-1.293 0-1.88.605-1.88 1.232 0 .869.838 1.11 2.291 1.375 2.359.458 3.016.58 3.742 1.183.704.579 1.157 1.544 1.157 2.556 0 1.882-1.587 4.125-5.104 4.125-2.02 0-4.015-.674-5.445-2.145l2.017-1.785zM121.672 2.621v9.58l4.77-4.971h3.47l-4.678 4.97 4.767 7.454h-3.315l-3.425-5.403-1.589 1.663v3.74h-2.699V2.62h2.699z" fill="#F91C57"/><path fill-rule="evenodd" clip-rule="evenodd" d="M0 7.23h2.028V8.5C2.71 7.594 3.92 7.213 4.72 7.213c.802 0 1.807.326 2.37 1.395a3.269 3.269 0 0 1 2.727-1.395c.851 0 1.67.253 2.249.923.682.798.666 1.76.666 2.701v5.707h-2.03v-5c0-.852.12-2.284-1.43-2.284-.648 0-1.175.38-1.449.852-.392.669-.443 1.395-.443 2.175v4.257H5.352v-5.056c0-.65 0-.888-.068-1.16C5.13 9.731 4.687 9.26 3.97 9.26c-.613 0-1.209.38-1.566 1.051-.358.705-.376 1.558-.376 2.446v3.787H0V7.23zm19.318-.017h-.963l-1.62 6.761-1.89-6.761h-2.2l3.084 9.242c0 .182-.238.58-.477.743-.324.234-.767.234-.92.234-.204 0-.358-.016-.545-.051v1.901c.238.036.562.11 1.226.11 1.586 0 2.216-.671 2.797-2.575l.476-1.704 1.032-3.765V7.213zM93.076 2.62v5.96c-.86-1.013-1.929-1.352-3.04-1.352-1.663 0-2.968.81-3.851 2.08.222.136.436.286.654.463.549.455.98 1.038 1.326 1.68.433-.91 1.183-1.545 2.28-1.545.907 0 1.587.458 1.996 1.11.498.796.59 1.906.613 2.678.022 2.606-1.25 3.714-2.655 3.714-.903 0-1.485-.431-1.882-.993a6.856 6.856 0 0 1-1.582 2.522c.848.7 1.881 1.077 2.987 1.077 1.181 0 2.315-.433 3.154-1.519v1.158h2.701V0l-2.7 2.62z" fill="#F91C57"/><path d="M140 0h1.4v28H140zM147.8 20h1.66v-5.54h2.38L155 20h1.88l-3.34-5.72c1.8-.44 2.96-1.68 2.96-3.72 0-2.72-1.92-3.68-4.6-3.68h-4.1V20zm1.66-6.9V8.22h2.2c2.04 0 3.18.62 3.18 2.34 0 1.7-1.14 2.54-3.18 2.54h-2.2zm13.311 7.14c1.32 0 2.36-.46 3.2-1l-.58-1.08c-.72.46-1.5.76-2.42.76-1.86 0-3.12-1.32-3.24-3.38h6.56c.04-.24.06-.6.06-.94 0-2.78-1.4-4.56-3.88-4.56-2.22 0-4.36 1.94-4.36 5.12s2.06 5.08 4.66 5.08zm-3.06-5.88c.2-1.92 1.44-3.02 2.8-3.02 1.52 0 2.4 1.06 2.4 3.02h-5.2zm11.009 5.88c1.22 0 2.3-.64 3.22-1.4h.06l.14 1.16h1.36v-5.96c0-2.42-1-4-3.38-4-1.56 0-2.92.68-3.82 1.26l.64 1.14c.76-.52 1.78-1.04 2.9-1.04 1.6 0 2 1.2 2 2.44-4.14.46-5.96 1.52-5.96 3.64 0 1.74 1.22 2.76 2.84 2.76zm.48-1.32c-.96 0-1.72-.46-1.72-1.56 0-1.24 1.12-2.04 4.36-2.44v2.7c-.94.84-1.7 1.3-2.64 1.3zm10.678 1.32c1.14 0 2.18-.64 2.94-1.38h.06l.14 1.14h1.36V5.76h-1.66V9.5l.08 1.66c-.86-.7-1.6-1.12-2.72-1.12-2.22 0-4.22 1.96-4.22 5.12 0 3.24 1.58 5.08 4.02 5.08zm.36-1.38c-1.7 0-2.68-1.4-2.68-3.72 0-2.22 1.24-3.72 2.8-3.72.8 0 1.54.28 2.36 1.02v5.08c-.8.9-1.58 1.34-2.48 1.34zm11.354 1.38c1.32 0 2.36-.46 3.2-1l-.58-1.08c-.72.46-1.5.76-2.42.76-1.86 0-3.12-1.32-3.24-3.38h6.56c.04-.24.06-.6.06-.94 0-2.78-1.4-4.56-3.88-4.56-2.22 0-4.36 1.94-4.36 5.12s2.06 5.08 4.66 5.08zm-3.06-5.88c.2-1.92 1.44-3.02 2.8-3.02 1.52 0 2.4 1.06 2.4 3.02h-5.2zm9.042 5.64h1.64v-6.24c.66-1.64 1.64-2.24 2.46-2.24.4 0 .62.06.94.16l.32-1.44c-.32-.14-.62-.2-1.04-.2-1.1 0-2.1.78-2.76 2h-.06l-.14-1.76h-1.36V20z"/></svg>