<?xml version="1.0" encoding="UTF-8" standalone="no"?>
<!DOCTYPE svg PUBLIC "-//W3C//DTD SVG 1.1//EN" "http://www.w3.org/Graphics/SVG/1.1/DTD/svg11.dtd">
<svg xmlns="http://www.w3.org/2000/svg" xmlns:xlink="http://www.w3.org/1999/xlink" version="1.1" width="358.159pt" height="42.253pt" viewBox="0 0 358.159 42.253">
<g enable-background="new">
<g id="Layer-1" data-name="Lager 1">
<path transform="matrix(1,0,0,-1,16.987,14.941799)" d="M 0 0 L -.525 -.525 L -4.139 -.525 L -4.139 2.984 L -.525 2.984 L 0 2.459 Z M -6.179 4.694 L -6.179 -5.804 L -4.139 -5.804 L -4.139 -2.235 L .39 -2.235 L 2.009 -.601 L 2.009 3.074 L .405 4.694 Z " fill="#3c00c8"/>
<path transform="matrix(1,0,0,-1,32.2551,18.241599)" d="M 0 0 L -.766 -.765 L -4.005 -.765 L -4.77 0 L -4.77 5.489 L -4.005 6.254 L -.766 6.254 L 0 5.489 Z M -5.084 7.994 L -6.81 6.27 L -6.81 -.78 L -5.084 -2.504 L .314 -2.504 L 2.039 -.78 L 2.039 6.27 L .314 7.994 Z " fill="#3c00c8"/>
<path transform="matrix(1,0,0,-1,49.532,17.656599)" d="M 0 0 L -.061 0 L -2.1 7.409 L -3.63 7.409 L -5.714 0 L -5.774 0 L -7.049 7.409 L -9.104 7.409 L -6.929 -3.089 L -5.025 -3.089 L -2.895 4.29 L -2.835 4.29 L -.75 -3.089 L 1.155 -3.089 L 3.329 7.409 L 1.275 7.409 Z " fill="#3c00c8"/>
<path transform="matrix(1,0,0,-1,59.3098,20.745999)" d="M 0 0 L 7.589 0 L 7.589 1.724 L 2.04 1.724 L 2.04 4.424 L 7.154 4.424 L 7.154 6.119 L 2.04 6.119 L 2.04 8.774 L 7.589 8.774 L 7.589 10.498 L 0 10.498 Z " fill="#3c00c8"/>
<path transform="matrix(1,0,0,-1,79.677,14.522299)" d="M 0 0 L -.525 -.525 L -4.139 -.525 L -4.139 2.565 L -.525 2.565 L 0 2.04 Z M 2.009 -.525 L 2.009 2.654 L .405 4.274 L -6.179 4.274 L -6.179 -6.224 L -4.139 -6.224 L -4.139 -2.205 L -.87 -2.205 L .03 -3.209 L .03 -6.224 L 2.07 -6.224 L 2.07 -2.745 L .99 -1.56 Z " fill="#3c00c8"/>
<path transform="matrix(1,0,0,-1,88.7204,20.745999)" d="M 0 0 L 7.589 0 L 7.589 1.724 L 2.039 1.724 L 2.039 4.424 L 7.153 4.424 L 7.153 6.119 L 2.039 6.119 L 2.039 8.774 L 7.589 8.774 L 7.589 10.498 L 0 10.498 Z " fill="#3c00c8"/>
<path transform="matrix(1,0,0,-1,109.3869,18.241599)" d="M 0 0 L -.765 -.765 L -4.44 -.765 L -4.44 6.254 L -.765 6.254 L 0 5.489 Z M -6.479 7.994 L -6.479 -2.504 L .24 -2.504 L 2.04 -.705 L 2.04 6.194 L .24 7.994 Z " fill="#3c00c8"/>
<path transform="matrix(1,0,0,-1,134.0427,18.3919)" d="M 0 0 L -.645 -.645 L -4.544 -.645 L -4.544 2.115 L -.645 2.115 L 0 1.47 Z M -4.544 6.435 L -.99 6.435 L -.465 5.91 L -.465 4.29 L -1.005 3.75 L -4.544 3.75 Z M 1.545 3.705 L 1.545 6.644 L .045 8.144 L -6.539 8.144 L -6.539 -2.354 L .39 -2.354 L 2.01 -.735 L 2.01 2.01 L .945 3.089 Z " fill="#3c00c8"/>
<path transform="matrix(1,0,0,-1,145.675,14.551598)" d="M 0 0 L -.029 0 L -2.535 4.304 L -4.77 4.304 L -1.035 -1.905 L -1.035 -6.194 L 1.005 -6.194 L 1.005 -1.905 L 4.74 4.304 L 2.504 4.304 Z " fill="#3c00c8"/>
<clipPath id="cp0">
<path transform="matrix(1,0,0,-1,0,42.253)" d="M 0 42.253 L 358.159 42.253 L 358.159 0 L 0 0 Z "/>
</clipPath>
<g clip-path="url(#cp0)">
<path transform="matrix(1,0,0,-1,191.0847,13.320698)" d="M 0 0 L -3.737 1.099 C -6.99 1.978 -7.342 3.604 -7.342 4.572 C -7.342 6.726 -5.32 8.133 -2.814 8.133 C -.747 8.133 .727 7.279 1.363 5.885 C 1.83 4.862 2.815 4.176 3.94 4.176 L 3.952 4.176 C 6.022 4.176 7.365 6.339 6.475 8.209 C 4.931 11.448 1.47 13.321 -2.726 13.321 C -8.309 13.321 -12.925 9.76 -12.925 4.44 C -12.925 1.758 -11.87 -2.066 -5.276 -4.001 L -1.539 -4.968 C 1.406 -5.759 2.77 -7.078 2.638 -9.1 C 2.506 -11.167 .659 -12.75 -2.375 -12.75 C -4.813 -12.75 -6.487 -11.588 -7.208 -10.08 C -7.674 -9.106 -8.653 -8.485 -9.732 -8.485 C -11.818 -8.485 -13.211 -10.703 -12.239 -12.549 C -10.592 -15.673 -7.017 -17.805 -2.375 -17.805 C 3.166 -17.805 8 -14.684 8.265 -9.232 C 8.528 -5.672 6.77 -1.847 0 0 " fill="#3c00c8"/>
<path transform="matrix(1,0,0,-1,219.676,15.387098)" d="M 0 0 L 10.299 10.971 C 11.745 12.511 10.652 15.035 8.54 15.035 C 7.888 15.035 7.264 14.771 6.81 14.304 L -3.209 4 L -3.209 12.43 C -3.209 13.869 -4.375 15.035 -5.814 15.035 L -6.275 15.035 C -7.714 15.035 -8.881 13.869 -8.881 12.43 L -8.881 -12.65 C -8.881 -14.089 -7.714 -15.255 -6.275 -15.255 L -5.814 -15.255 C -4.375 -15.255 -3.209 -14.089 -3.209 -12.65 L -3.209 -4.044 L 6.184 -14.458 C 6.642 -14.966 7.293 -15.255 7.976 -15.255 L 8.689 -15.255 C 10.8 -15.255 11.894 -12.738 10.453 -11.195 Z " fill="#3c00c8"/>
<path transform="matrix(1,0,0,-1,246.1936,.3518982)" d="M 0 0 C -1.542 0 -2.792 -1.25 -2.792 -2.792 L -2.792 -27.499 C -2.792 -29.041 -1.542 -30.29 0 -30.29 C 1.541 -30.29 2.791 -29.041 2.791 -27.499 L 2.791 -2.792 C 2.791 -1.25 1.541 0 0 0 " fill="#3c00c8"/>
<path transform="matrix(1,0,0,-1,282.9904,.3518982)" d="M 0 0 L -.044 0 C -1.586 0 -2.836 -1.25 -2.836 -2.792 L -2.836 -19.695 L -13.433 -1.643 C -14.03 -.625 -15.122 0 -16.303 0 C -18.14 0 -19.63 -1.489 -19.63 -3.327 L -19.63 -27.499 C -19.63 -29.041 -18.38 -30.291 -16.838 -30.291 C -15.296 -30.291 -14.047 -29.041 -14.047 -27.499 L -14.047 -10.375 L -3.3 -28.676 C -2.713 -29.676 -1.64 -30.291 -.479 -30.291 C 1.327 -30.291 2.792 -28.826 2.792 -27.019 L 2.792 -2.792 C 2.792 -1.25 1.542 0 0 0 " fill="#3c00c8"/>
<path transform="matrix(1,0,0,-1,316.1594,.3518982)" d="M 0 0 L -13.496 0 C -14.88 0 -16.002 -1.122 -16.002 -2.505 L -16.002 -27.785 C -16.002 -29.168 -14.88 -30.29 -13.496 -30.29 L -12.881 -30.29 C -11.497 -30.29 -10.375 -29.168 -10.375 -27.785 L -10.375 -17.893 L -2.681 -17.893 C -1.297 -17.893 -.175 -16.771 -.175 -15.387 C -.175 -14.003 -1.297 -12.881 -2.681 -12.881 L -10.375 -12.881 L -10.375 -5.012 L 0 -5.012 C 1.385 -5.012 2.506 -3.89 2.506 -2.505 C 2.506 -1.122 1.385 0 0 0 " fill="#3c00c8"/>
<path transform="matrix(1,0,0,-1,342.7717,25.542799)" d="M 0 0 C -5.495 0 -9.76 4.44 -9.76 9.98 C -9.76 15.52 -5.495 20.003 0 20.003 C 5.452 20.003 9.76 15.52 9.76 9.98 C 9.76 4.44 5.452 0 0 0 M 0 25.543 C -8.616 25.543 -15.343 18.597 -15.343 9.98 C -15.343 1.451 -8.616 -5.539 0 -5.539 C 8.617 -5.539 15.388 1.451 15.388 9.98 C 15.388 18.597 8.617 25.543 0 25.543 " fill="#3c00c8"/>
<path transform="matrix(1,0,0,-1,188.7224,35.570699)" d="M 0 0 C -1.846 0 -3.429 -1.407 -3.429 -3.341 C -3.429 -5.275 -1.846 -6.683 0 -6.683 C 1.934 -6.683 3.517 -5.275 3.517 -3.341 C 3.517 -1.407 1.934 0 0 0 " fill="#3c00c8"/>
</g>
</g>
</g>
</svg>
