<?xml version="1.0" encoding="utf-8"?>
<!-- Generator: Adobe Illustrator 22.1.0, SVG Export Plug-In . SVG Version: 6.00 Build 0)  -->
<svg version="1.1" id="Layer_1" xmlns="http://www.w3.org/2000/svg" xmlns:xlink="http://www.w3.org/1999/xlink" x="0px" y="0px"
	 viewBox="0 0 734.1 200" style="enable-background:new 0 0 734.1 200;" xml:space="preserve">
<style type="text/css">
	.st0{fill:#0A1C2B;}
</style>
<g>
	<g>
		<path class="st0" d="M61.2,94.8V63.2c0-1.1,0.9-1.9,1.9-1.9h15.3c1.1,0,1.9,0.9,1.9,1.9v31.5H61.2V94.8z"/>
		<path class="st0" d="M84.5,94.8v-16c0-1.1,0.9-1.9,1.9-1.9h15.3c1.1,0,1.9,0.9,1.9,1.9v15.9L84.5,94.8L84.5,94.8z"/>
		<path class="st0" d="M107.7,94.8V69.9c0-1.1,0.9-1.9,1.9-1.9h15.3c1.1,0,1.9,0.9,1.9,1.9v24.8h-19.1V94.8z"/>
		<path class="st0" d="M67.7,132h-4.6c-1.1,0-1.9-0.9-1.9-1.9V99h8.4v31C69.6,131.1,68.7,132,67.7,132"/>
		<path class="st0" d="M78.4,132h-2.7c-1.1,0-1.9-0.9-1.9-1.9V99h6.5v31C80.3,131.1,79.5,132,78.4,132"/>
		<path class="st0" d="M92.5,132h-6.2c-1.1,0-1.9-0.9-1.9-1.9V99h10v31C94.5,131.1,93.6,132,92.5,132"/>
		<path class="st0" d="M101.7,132h-1.1c-1.1,0-1.9-0.9-1.9-1.9V99h4.9v31C103.6,131.1,102.7,132,101.7,132"/>
		<path class="st0" d="M118.8,132h6.2c1.1,0,1.9-0.9,1.9-1.9V99h-10v31C116.9,131.1,117.7,132,118.8,132"/>
		<path class="st0" d="M109.6,132h1.1c1.1,0,1.9-0.9,1.9-1.9V99h-4.9v31C107.7,131.1,108.6,132,109.6,132"/>
		<polygon class="st0" points="167.2,115.5 167.2,81.5 170.2,81.5 170.2,112.9 186.7,112.9 186.7,115.5 		"/>
		<path class="st0" d="M232.5,115.5l-3.4-8.4h-18l-3.4,8.4h-3.4l13.9-34h3.6l13.9,34H232.5z M220.2,84.6l-8.1,19.9h16.1L220.2,84.6z
			"/>
		<path class="st0" d="M256.2,115.5v-34h14c5.7,0,9.4,3.3,9.4,8.7c0,4.3-2.9,7.2-6,7.8c3.6,0.6,6.6,4.3,6.6,8.4
			c0,5.7-3.7,9.2-9.7,9.2L256.2,115.5L256.2,115.5z M276.5,90.5c0-3.5-2.3-6.3-6.7-6.3h-10.7v12.6h10.7
			C274.2,96.7,276.5,94,276.5,90.5 M277.2,106.1c0-3.5-2.4-6.7-7.1-6.7h-10.9v13.5H270C274.5,112.9,277.2,110.3,277.2,106.1"/>
		<polygon class="st0" points="302.8,115.5 302.8,81.5 324.4,81.5 324.4,84.1 305.8,84.1 305.8,96.7 324.1,96.7 324.1,99.4 
			305.8,99.4 305.8,112.9 324.4,112.9 324.4,115.5 		"/>
		<polygon class="st0" points="346.2,115.5 346.2,81.5 349.1,81.5 349.1,112.9 365.6,112.9 365.6,115.5 		"/>
		<rect x="386" y="81.5" class="st0" width="7.2" height="34"/>
		<polygon class="st0" points="438.7,115.5 422.5,93.3 422.5,115.5 415.3,115.5 415.3,81.5 422.7,81.5 438.5,102.9 438.5,81.5 
			445.7,81.5 445.7,115.5 		"/>
		<path class="st0" d="M465.4,110.7l4-5.7c2.4,2.5,6.1,4.6,10.8,4.6c4,0,5.9-1.8,5.9-3.8c0-5.9-19.6-1.8-19.6-14.6
			c0-5.7,4.9-10.4,12.9-10.4c5.4,0,9.9,1.6,13.3,4.7l-4,5.4c-2.8-2.5-6.4-3.7-9.9-3.7c-3.1,0-4.8,1.3-4.8,3.4
			c0,5.4,19.5,1.7,19.5,14.4c0,6.2-4.5,10.9-13.6,10.9C473.3,116.1,468.6,113.9,465.4,110.7"/>
		<rect x="513.6" y="81.5" class="st0" width="7.2" height="34"/>
		<path class="st0" d="M541.3,98.5c0-10.8,8.2-17.6,18.2-17.6c7,0,11.5,3.6,14,7.6l-6,3.3c-1.6-2.4-4.5-4.4-8.1-4.4
			c-6.2,0-10.7,4.7-10.7,11.2c0,6.4,4.5,11.2,10.7,11.2c3,0,5.8-1.3,7.2-2.6V103h-9v-6.3h16.2v13.1c-3.5,3.9-8.3,6.4-14.4,6.4
			C549.4,116.1,541.3,109.2,541.3,98.5"/>
		<polygon class="st0" points="618.2,115.5 618.2,101.2 602.1,101.2 602.1,115.5 594.9,115.5 594.9,81.5 602.1,81.5 602.1,94.9 
			618.2,94.9 618.2,81.5 625.5,81.5 625.5,115.5 		"/>
		<polygon class="st0" points="655.3,115.5 655.3,87.9 645.4,87.9 645.4,81.5 672.5,81.5 672.5,87.9 662.6,87.9 662.6,115.5 		"/>
		<g>
			<path class="st0" d="M672.8,109c0-1.2,0.3-2.2,0.9-3.2c0.6-1,1.4-1.8,2.4-2.4s2.1-0.9,3.3-0.9c1.2,0,2.2,0.3,3.2,0.9
				s1.8,1.4,2.4,2.4s0.9,2.1,0.9,3.3c0,1.1-0.3,2.2-0.8,3.2s-1.3,1.8-2.4,2.4c-1,0.6-2.1,0.9-3.3,0.9c-1.2,0-2.3-0.3-3.3-0.9
				c-1-0.6-1.8-1.4-2.4-2.4C673.1,111.2,672.8,110.1,672.8,109z M673.9,109c0,1,0.2,1.9,0.7,2.7c0.5,0.8,1.2,1.5,2,2
				s1.7,0.7,2.7,0.7c1,0,1.9-0.2,2.7-0.7c0.8-0.5,1.5-1.2,2-2c0.5-0.8,0.7-1.7,0.7-2.7c0-1-0.2-1.9-0.7-2.7c-0.5-0.8-1.2-1.5-2-2
				c-0.8-0.5-1.7-0.7-2.7-0.7c-1,0-1.9,0.2-2.7,0.7c-0.8,0.5-1.5,1.1-2,2S673.9,108,673.9,109z M682,107.4c0,1-0.4,1.7-1.3,2l2,3.4
				h-1.8l-1.7-3h-0.8v3h-1.6v-7.8h2.3c1,0,1.7,0.2,2.2,0.6C681.8,106.1,682,106.7,682,107.4z M678.4,108.6h0.6c0.4,0,0.7-0.1,1-0.3
				s0.3-0.5,0.3-0.9c0-0.4-0.1-0.7-0.3-0.9c-0.2-0.2-0.5-0.2-1-0.2h-0.6V108.6z"/>
		</g>
	</g>
</g>
</svg>
