<svg width="63" height="29" viewBox="0 0 63 29" fill="none" xmlns="http://www.w3.org/2000/svg">
<path d="M5 3.65941V7.57275H5.7923V6.24182H7.5518L8.1809 5.63264V4.26341L7.5575 3.65941H5ZM5.7923 4.29681H7.1963L7.4 4.49229V5.40952L7.1963 5.60442H5.7923V4.29681Z" fill="#3C00C8"/>
<path d="M11.3499 3.65941L10.6797 4.30228V6.92989L11.3499 7.57275H13.4472L14.1171 6.92989V4.30228L13.4472 3.65941H11.3499ZM11.4723 6.63911V4.59305L11.7696 4.30804H13.0278L13.3248 4.59305V6.63911L13.0278 6.92413H11.7696L11.4723 6.63911Z" fill="#3C00C8"/>
<path d="M20.5371 3.65941L20.0418 6.42089H20.0184L19.2261 3.65941H18.6321L17.8221 6.42089H17.7987L17.304 3.65941H16.5054L17.3502 7.57275H18.09L18.9174 4.82222H18.9408L19.7502 7.57275H20.49L21.3351 3.65941H20.5371Z" fill="#3C00C8"/>
<path d="M23.8403 3.65941V7.57275H26.7881V6.92989H24.6326V5.92312H26.6195V5.29206H24.6326V4.30228H26.7881V3.65941H23.8403Z" fill="#3C00C8"/>
<path d="M29.3511 3.65941V7.57275H30.1434V6.07455H31.4136L31.7631 6.44882V7.57275H32.5554V6.2755L32.136 5.83416L32.532 5.44839V4.26341L31.9089 3.65941H29.3511ZM30.1434 4.29681H31.5477L31.7514 4.49229V5.25291L31.5477 5.44839H30.1434V4.29681Z" fill="#3C00C8"/>
<path d="M35.2642 3.65941V7.57275H38.212V6.92989H36.0565V5.92312H38.0434V5.29206H36.0565V4.30228H38.212V3.65941H35.2642Z" fill="#3C00C8"/>
<path d="M40.7754 3.65941V7.57275H43.3851L44.0841 6.90196V4.33049L43.3851 3.65941H40.7754ZM41.5677 4.30804H42.9948L43.2918 4.59305V6.63911L42.9948 6.92413H41.5677V4.30804Z" fill="#3C00C8"/>
<path d="M50.3291 3.65941V7.57275H53.0207L53.6498 6.96904V5.94587L53.2358 5.54339L53.4695 5.31423V4.21822L52.8866 3.65941H50.3291ZM51.104 4.29681H52.4849L52.6886 4.49229V5.096L52.4789 5.29724H51.104V4.29681ZM51.104 5.90671H52.6187L52.8689 6.14739V6.69468L52.6187 6.93564H51.104V5.90671Z" fill="#3C00C8"/>
<path d="M58.1325 3.65941L57.1593 5.26413H57.1479L56.1747 3.65941H55.3071L56.7573 5.97408V7.57275H57.5499V5.97408L59.0004 3.65941H58.1325Z" fill="#3C00C8"/>
<path d="M8.8775 16.0109L7.7564 15.6945C6.7805 15.4412 6.6749 14.9733 6.6749 14.6946C6.6749 14.0745 7.2815 13.6695 8.0333 13.6695C8.6534 13.6695 9.0956 13.9153 9.2864 14.3163C9.4265 14.6112 9.722 14.8084 10.0595 14.8084H10.0631C10.6841 14.8084 11.087 14.1856 10.82 13.6476C10.3568 12.7148 9.3185 12.1759 8.0597 12.1759C6.3848 12.1759 5 13.201 5 14.7326C5 15.5048 5.3165 16.6057 7.295 17.1628L8.4158 17.4411C9.2996 17.6689 9.7085 18.0486 9.6689 18.631C9.6293 19.2255 9.0752 19.6812 8.165 19.6812C7.4336 19.6812 6.9314 19.347 6.7151 18.9126C6.5753 18.6325 6.2816 18.4537 5.9579 18.4537C5.3321 18.4537 4.9142 19.0922 5.2061 19.6237C5.6999 20.5231 6.7724 21.1368 8.165 21.1368C9.8273 21.1368 11.2775 20.2383 11.357 18.6687C11.4359 17.6438 10.9088 16.5426 8.8775 16.0109Z" fill="#3C00C8"/>
<path d="M17.4548 16.6059L20.5442 13.4474C20.9783 13.0037 20.6504 12.2774 20.0165 12.2774C19.8212 12.2774 19.634 12.3531 19.4975 12.4875L16.4921 15.454V13.0273C16.4921 12.6131 16.142 12.2774 15.7106 12.2774H15.5723C15.1406 12.2774 14.7905 12.6131 14.7905 13.0273V20.2474C14.7905 20.662 15.1406 20.9977 15.5723 20.9977H15.7106C16.142 20.9977 16.4921 20.662 16.4921 20.2474V17.7701L19.31 20.7682C19.4471 20.9145 19.6424 20.9977 19.8476 20.9977H20.0615C20.6945 20.9977 21.0227 20.2728 20.5907 19.8288L17.4548 16.6059Z" fill="#3C00C8"/>
<path d="M25.4099 12.2771C24.9473 12.2771 24.5723 12.637 24.5723 13.0809V20.1942C24.5723 20.6378 24.9473 20.9977 25.4099 20.9977C25.8725 20.9977 26.2475 20.6378 26.2475 20.1942V13.0809C26.2475 12.637 25.8725 12.2771 25.4099 12.2771Z" fill="#3C00C8"/>
<path d="M36.4491 12.2773H36.4359C35.9733 12.2773 35.5983 12.6371 35.5983 13.0811V17.9473L32.4189 12.7503C32.2398 12.4572 31.9122 12.2773 31.5582 12.2773C31.0071 12.2773 30.5601 12.7059 30.5601 13.2351V20.1938C30.5601 20.6377 30.9351 20.9976 31.3977 20.9976C31.86 20.9976 32.235 20.6377 32.235 20.1938V15.2642L35.4588 20.5329C35.6352 20.8208 35.9571 20.9976 36.3054 20.9976C36.8472 20.9976 37.2864 20.5758 37.2864 20.0559V13.0811C37.2864 12.6371 36.9117 12.2773 36.4491 12.2773Z" fill="#3C00C8"/>
<path d="M46.3997 12.2771H42.3506C41.9354 12.2771 41.5991 12.6001 41.5991 12.9986V20.2762C41.5991 20.6744 41.9354 20.9977 42.3506 20.9977H42.5354C42.9506 20.9977 43.2872 20.6744 43.2872 20.2762V17.4284H45.5951C46.0103 17.4284 46.3469 17.1054 46.3469 16.7069C46.3469 16.3085 46.0103 15.9855 45.5951 15.9855H43.2872V13.72H46.3997C46.8149 13.72 47.1515 13.397 47.1515 12.9986C47.1515 12.6001 46.8149 12.2771 46.3997 12.2771Z" fill="#3C00C8"/>
<path d="M54.3835 19.5294C52.735 19.5294 51.4555 18.2511 51.4555 16.6565C51.4555 15.0613 52.735 13.7706 54.3835 13.7706C56.0188 13.7706 57.3115 15.0613 57.3115 16.6565C57.3115 18.2511 56.0188 19.5294 54.3835 19.5294ZM54.3835 12.176C51.7984 12.176 49.7803 14.1754 49.7803 16.6565C49.7803 19.1116 51.7984 21.124 54.3835 21.124C56.9686 21.124 58.9996 19.1116 58.9996 16.6565C58.9996 14.1754 56.9686 12.176 54.3835 12.176Z" fill="#3C00C8"/>
<path d="M8.16884 22.4166C7.61474 22.4166 7.14014 22.8214 7.14014 23.3784C7.14014 23.9352 7.61474 24.3406 8.16884 24.3406C8.74904 24.3406 9.22394 23.9352 9.22394 23.3784C9.22394 22.8214 8.74904 22.4166 8.16884 22.4166Z" fill="#3C00C8"/>
</svg>
