<?xml version="1.0" encoding="UTF-8" standalone="no"?>
<!DOCTYPE svg PUBLIC "-//W3C//DTD SVG 1.1//EN" "http://www.w3.org/Graphics/SVG/1.1/DTD/svg11.dtd">
<svg xmlns="http://www.w3.org/2000/svg" xmlns:xlink="http://www.w3.org/1999/xlink" version="1.1" width="1000pt" height="234.739pt" viewBox="0 0 1000 234.739">
<g enable-background="new">
<g id="Layer-1" data-name="Lager 1">
<clipPath id="cp0">
<path transform="matrix(1,0,0,-1,0,234.739)" d="M 0 234.739 L 1000 234.739 L 1000 0 L 0 0 Z "/>
</clipPath>
<g clip-path="url(#cp0)">
<path transform="matrix(1,0,0,-1,17.7397,121.1429)" d="M 0 0 C 5.995 0 11.435 -3.451 14.022 -8.859 C 18.03 -17.237 27.326 -23.69 40.876 -23.69 C 57.731 -23.69 67.99 -14.897 68.721 -3.418 C 69.454 7.816 61.882 15.143 45.519 19.539 L 24.759 24.912 C -11.875 35.659 -17.74 56.906 -17.74 71.805 C -17.74 101.36 7.906 121.143 38.923 121.143 C 62.235 121.143 81.464 110.742 90.041 92.744 C 94.987 82.358 87.523 70.341 76.022 70.341 L 75.957 70.341 C 69.71 70.341 64.235 74.152 61.64 79.834 C 58.104 87.58 49.917 92.321 38.436 92.321 C 24.513 92.321 13.279 84.505 13.279 72.538 C 13.279 67.165 15.233 58.128 33.306 53.243 L 54.068 47.138 C 91.68 36.879 101.448 15.63 99.984 -4.153 C 98.516 -34.437 71.653 -51.779 40.876 -51.779 C 15.086 -51.779 -4.778 -39.933 -13.924 -22.577 C -19.329 -12.322 -11.59 0 0 0 " fill="#3c00c8"/>
<path transform="matrix(1,0,0,-1,278.9238,170.2347)" d="M 0 0 L -3.966 0 C -7.762 0 -11.38 1.608 -13.92 4.428 L -66.103 62.281 L -66.103 14.475 C -66.103 6.48 -72.583 0 -80.577 0 L -83.137 0 C -91.13 0 -97.611 6.48 -97.611 14.475 L -97.611 153.806 C -97.611 161.799 -91.13 168.28 -83.137 168.28 L -80.577 168.28 C -72.583 168.28 -66.103 161.799 -66.103 153.806 L -66.103 106.975 L -10.444 164.219 C -7.919 166.815 -4.453 168.28 -.833 168.28 C 10.906 168.28 16.976 154.258 8.941 145.699 L -48.273 84.751 L 9.799 22.556 C 17.798 13.986 11.723 0 0 0 " fill="#3c00c8"/>
<path transform="matrix(1,0,0,-1,377.9658,1.9544983)" d="M 0 0 L 0 0 C 8.565 0 15.509 -6.943 15.509 -15.509 L 15.509 -152.772 C 15.509 -161.337 8.565 -168.28 0 -168.28 C -8.565 -168.28 -15.509 -161.337 -15.509 -152.772 L -15.509 -15.509 C -15.509 -6.943 -8.565 0 0 0 " fill="#3c00c8"/>
<path transform="matrix(1,0,0,-1,579.7328,170.2347)" d="M 0 0 L 0 0 C -6.446 0 -12.408 3.414 -15.672 8.971 L -75.374 110.639 L -75.374 15.51 C -75.374 6.942 -82.316 0 -90.881 0 C -99.446 0 -106.391 6.942 -106.391 15.51 L -106.391 149.797 C -106.391 160.005 -98.114 168.28 -87.906 168.28 C -81.351 168.28 -75.286 164.808 -71.966 159.153 L -13.09 58.862 L -13.09 152.771 C -13.09 161.337 -6.146 168.28 2.419 168.28 L 2.665 168.28 C 11.229 168.28 18.172 161.337 18.172 152.771 L 18.172 18.173 C 18.172 8.136 10.036 0 0 0 " fill="#3c00c8"/>
<path transform="matrix(1,0,0,-1,691.6879,1.9544983)" d="M 0 0 L 74.981 0 C 82.671 0 88.902 -6.233 88.902 -13.92 C 88.902 -21.61 82.671 -27.843 74.981 -27.843 L 17.342 -27.843 L 17.342 -71.562 L 60.086 -71.562 C 67.773 -71.562 74.007 -77.795 74.007 -85.482 L 74.007 -85.484 C 74.007 -93.172 67.773 -99.405 60.086 -99.405 L 17.342 -99.405 L 17.342 -154.359 C 17.342 -162.047 11.109 -168.28 3.42 -168.28 L 0 -168.28 C -7.687 -168.28 -13.921 -162.047 -13.921 -154.359 L -13.921 -13.92 C -13.921 -6.233 -7.687 0 0 0 " fill="#3c00c8"/>
<path transform="matrix(1,0,0,-1,914.5161,.00039672853)" d="M 0 0 C 47.871 0 85.484 -38.589 85.484 -86.461 C 85.484 -133.844 47.871 -172.677 0 -172.677 C -47.872 -172.677 -85.243 -133.844 -85.243 -86.461 C -85.243 -38.589 -47.872 0 0 0 M 0 -141.903 C 30.285 -141.903 54.22 -117.234 54.22 -86.461 C 54.22 -55.686 30.285 -30.773 0 -30.773 C -30.529 -30.773 -54.222 -55.686 -54.222 -86.461 C -54.222 -117.234 -30.529 -141.903 0 -141.903 " fill="#3c00c8"/>
<path transform="matrix(1,0,0,-1,58.685,197.6136)" d="M 0 0 C 10.745 0 19.54 -7.816 19.54 -18.562 C 19.54 -29.31 10.745 -37.125 0 -37.125 C -10.259 -37.125 -19.05 -29.31 -19.05 -18.562 C -19.05 -7.816 -10.259 0 0 0 " fill="#3c00c8"/>
</g>
</g>
</g>
</svg>
